<svg xmlns="http://www.w3.org/2000/svg" width="111" height="139" fill="none" viewBox="0 0 111 139"><path fill="#F5F5F3" d="M29.2815 108.751C28.907 109.177 28.2413 109.177 27.8668 108.751C27.4923 108.325 27.4923 107.567 27.8668 107.141L30.4466 104.206C30.6546 103.969 30.9043 103.874 31.1539 103.874H44.1359L51.8335 95.1155C52.208 94.6894 52.8738 94.6894 53.2483 95.1155C53.6227 95.5416 53.6227 96.2991 53.2483 96.7252L45.2593 105.815C45.0929 106.005 44.8016 106.147 44.552 106.147H31.57L29.2815 108.751Z"/><path fill="#F5F5F3" d="M38.6875 104.205C39.062 103.779 39.7278 103.779 40.1022 104.205C40.4767 104.631 40.4767 105.389 40.1022 105.815L36.6487 109.745C36.2742 110.171 35.6085 110.171 35.234 109.745C34.8595 109.319 34.8595 108.561 35.234 108.135L38.6875 104.205Z"/><path fill="#F5F5F3" d="M26.0768 113.105C26.5345 113.105 26.9922 112.868 27.2835 112.537C27.5748 112.205 27.7828 111.685 27.7828 111.164C27.7828 110.643 27.5748 110.122 27.2835 109.791C26.9922 109.459 26.5345 109.223 26.0768 109.223C25.6191 109.223 25.1614 109.459 24.8702 109.791C24.5789 110.122 24.3709 110.643 24.3709 111.164C24.3709 111.685 24.5789 112.205 24.8702 112.537C25.203 112.868 25.6191 113.105 26.0768 113.105ZM28.7398 114.147C28.0741 114.904 27.1171 115.378 26.0768 115.378C25.0366 115.378 24.1212 114.904 23.4139 114.147C22.7481 113.389 22.332 112.3 22.332 111.117C22.332 109.933 22.7481 108.891 23.4139 108.086C24.0796 107.329 25.0366 106.855 26.0768 106.855C27.1171 106.855 28.0325 107.329 28.7398 108.086C29.4056 108.844 29.8216 109.933 29.8216 111.117C29.8216 112.3 29.4056 113.342 28.7398 114.147Z"/><path fill="#F5F5F3" d="M42.594 121.675C42.2195 122.101 41.5538 122.101 41.1793 121.675C40.8048 121.249 40.8048 120.491 41.1793 120.065L51.8728 107.898C52.2473 107.472 52.913 107.472 53.2875 107.898C53.662 108.324 53.662 109.081 53.2875 109.507L42.594 121.675Z"/><path fill="#F5F5F3" d="M53.5832 117.745C53.5832 118.408 53.1255 118.976 52.5846 118.976C52.0436 118.976 51.5859 118.408 51.5859 117.745V81.2896C51.5859 80.6267 52.0436 80.0586 52.5846 80.0586C53.1255 80.0586 53.5832 80.6267 53.5832 81.2896V117.745Z"/><path fill="#F5F5F3" d="M52.5391 123.996C52.9968 123.996 53.4545 123.759 53.7458 123.428C54.0371 123.097 54.2451 122.576 54.2451 122.055C54.2451 121.534 54.0371 121.013 53.7458 120.682C53.4545 120.351 52.9968 120.114 52.5391 120.114C52.0814 120.114 51.6237 120.351 51.3325 120.682C51.0412 121.013 50.8332 121.534 50.8332 122.055C50.8332 122.576 51.0412 123.097 51.3325 123.428C51.6237 123.759 52.0814 123.996 52.5391 123.996ZM55.2021 125.038C54.5364 125.795 53.5794 126.269 52.5807 126.269C51.5405 126.269 50.6251 125.795 49.9178 125.038C49.252 124.28 48.8359 123.191 48.8359 122.008C48.8359 120.824 49.252 119.782 49.9178 119.025C50.5835 118.267 51.5405 117.794 52.5391 117.794C53.5794 117.794 54.4948 118.267 55.2021 119.025C55.8679 119.782 56.2839 120.871 56.2839 122.055C56.2839 123.239 55.8679 124.28 55.2021 125.038Z"/><path fill="#F5F5F3" d="M51.8355 104.394C51.4611 103.968 51.4611 103.211 51.8355 102.784C52.21 102.358 52.8758 102.358 53.2503 102.784L60.0325 110.502H68.4791C68.7704 110.502 69.02 110.644 69.1865 110.833L71.1421 113.058C71.5166 113.484 71.5166 114.242 71.1421 114.668C70.7676 115.094 70.1019 115.094 69.7274 114.668L68.063 112.774H59.6164C59.3668 112.774 59.1171 112.68 58.9091 112.443L51.8355 104.394Z"/><path fill="#F5F5F3" d="M65.4026 112.491C65.0281 112.917 64.3624 112.917 63.9879 112.491C63.6134 112.065 63.6134 111.308 63.9879 110.881L67.6079 106.81C67.9823 106.384 68.6481 106.384 69.0226 106.81C69.3971 107.236 69.3971 107.993 69.0226 108.42L65.4026 112.539V112.491Z"/><path fill="#F5F5F3" d="M73.0964 118.456C73.5541 118.456 74.0118 118.219 74.303 117.887C74.5943 117.556 74.8023 117.035 74.8023 116.514C74.8023 115.994 74.5943 115.473 74.303 115.141C74.0118 114.763 73.5541 114.573 73.0964 114.573C72.6387 114.573 72.181 114.81 71.8897 115.141C71.5568 115.473 71.3904 115.994 71.3904 116.514C71.3904 117.035 71.5984 117.556 71.8897 117.887C72.181 118.219 72.6387 118.456 73.0964 118.456ZM75.7593 119.497C75.0936 120.255 74.1366 120.728 73.0964 120.728C72.0561 120.728 71.1407 120.255 70.4334 119.497C69.7677 118.74 69.3516 117.651 69.3516 116.467C69.3516 115.283 69.7677 114.242 70.4334 113.437C71.0991 112.679 72.0561 112.206 73.0964 112.206C74.1366 112.206 75.052 112.679 75.7593 113.437C76.4251 114.195 76.8412 115.283 76.8412 116.467C76.8412 117.651 76.4251 118.692 75.7593 119.497Z"/><path fill="#F5F5F3" d="M91.1149 95.3524C91.6558 95.3524 92.1135 95.8732 92.1135 96.4886C92.1135 97.1041 91.6558 97.6249 91.1149 97.6249H58.6183C58.3271 97.6249 58.0774 97.4829 57.911 97.2935L52.2105 90.8072C51.8361 90.3811 51.8361 89.6236 52.2105 89.1975C52.585 88.7714 53.2508 88.7714 53.6253 89.1975L59.0344 95.3524H91.1149Z"/><path fill="#F5F5F3" d="M68.2737 97.2935C67.8992 97.7196 67.2335 97.7196 66.859 97.2935C66.4845 96.8674 66.4845 96.1098 66.859 95.6837L71.5192 90.3811C71.8937 89.955 72.5594 89.955 72.9339 90.3811C73.3084 90.8072 73.3084 91.5647 72.9339 91.9908L68.2737 97.2935Z"/><path fill="#F5F5F3" d="M83.5792 102.453C83.9537 102.879 83.9537 103.637 83.5792 104.063C83.2048 104.489 82.539 104.489 82.1645 104.063L76.2145 97.2926C75.84 96.8665 75.84 96.109 76.2145 95.6829C76.5889 95.2568 77.2547 95.2568 77.6292 95.6829L83.5792 102.453Z"/><path fill="#F5F5F3" d="M85.3282 107.946C85.7859 107.946 86.2436 107.71 86.5349 107.378C86.8261 107.047 87.0342 106.526 87.0342 106.005C87.0342 105.484 86.8261 104.964 86.5349 104.632C86.2436 104.301 85.7859 104.064 85.3282 104.064C84.8705 104.064 84.4128 104.301 84.1215 104.632C83.8303 104.964 83.6222 105.484 83.6222 106.005C83.6222 106.526 83.8303 107.047 84.1215 107.378C84.4128 107.71 84.8705 107.946 85.3282 107.946ZM87.9912 108.988C87.3254 109.745 86.3684 110.219 85.3698 110.219C84.3296 110.219 83.4142 109.745 82.7068 108.988C82.0411 108.23 81.625 107.141 81.625 105.958C81.625 104.774 82.0411 103.733 82.7068 102.975C83.3726 102.218 84.3296 101.744 85.3282 101.744C86.3684 101.744 87.2838 102.218 87.9912 102.975C88.6569 103.733 89.073 104.822 89.073 106.005C89.073 107.189 88.6569 108.23 87.9912 108.988Z"/><path fill="#F5F5F3" d="M44.5549 94.6882C44.1805 95.1143 43.5147 95.1143 43.1402 94.6882C42.7658 94.2621 42.7658 93.5046 43.1402 93.0784L51.8781 83.136C52.2526 82.7099 52.9183 82.7099 53.2928 83.136C53.6673 83.5621 53.6673 84.3196 53.2928 84.7457L44.5549 94.6882Z"/><path fill="#F5F5F3" d="M41.5143 98.7598C41.972 98.7598 42.4297 98.5231 42.721 98.1917C43.0123 97.8603 43.2203 97.3395 43.2203 96.8187C43.2203 96.2979 43.0123 95.7771 42.721 95.4457C42.4297 95.0669 41.972 94.8775 41.5143 94.8775C41.0566 94.8775 40.5989 95.1143 40.3077 95.4457C39.9748 95.7771 39.8084 96.2979 39.8084 96.8187C39.8084 97.3395 40.0164 97.8603 40.3077 98.1917C40.5989 98.5231 41.0566 98.7598 41.5143 98.7598ZM44.1773 99.8014C43.5116 100.559 42.5546 101.032 41.5143 101.032C40.4741 101.032 39.5587 100.559 38.8514 99.8014C38.1856 99.0439 37.7695 97.955 37.7695 96.8187C37.7695 95.6351 38.1856 94.5935 38.8514 93.7886C39.5171 93.0311 40.4741 92.5576 41.5143 92.5576C42.5546 92.5576 43.47 93.0311 44.1773 93.7886C44.8431 94.5461 45.2591 95.6351 45.2591 96.8187C45.2591 98.0023 44.8431 99.0439 44.1773 99.8488V99.8014Z"/><path fill="#F5F5F3" d="M17.4612 94.121C17.0867 94.5471 16.421 94.5471 16.0465 94.121C15.672 93.6949 15.672 92.9373 16.0465 92.5112L20.457 87.4927C20.6651 87.2559 20.9147 87.1612 21.1644 87.1612H38.2241L44.4238 80.1068V77.1714C44.4238 76.556 44.8815 76.0352 45.4224 76.0352C45.9633 76.0352 46.421 76.556 46.421 77.1714V80.5803C46.421 80.8644 46.3378 81.1484 46.1298 81.3852L39.3475 89.1024C39.1811 89.2918 38.9314 89.4338 38.6401 89.4338H21.5805L17.4612 94.121Z"/><path fill="#F5F5F3" d="M29.9495 93.2685C29.575 93.6946 28.9092 93.6946 28.5348 93.2685C28.1603 92.8424 28.1603 92.0849 28.5348 91.6588L32.1964 87.4924C32.5708 87.0663 33.2366 87.0663 33.6111 87.4924C33.9855 87.9185 33.9855 88.6761 33.6111 89.1022L29.9495 93.2685Z"/><path fill="#F5F5F3" d="M14.6393 98.3331C15.097 98.3331 15.5547 98.0963 15.846 97.7649C16.1789 97.4335 16.3453 96.9127 16.3453 96.3919C16.3453 95.8711 16.1373 95.3503 15.846 95.0189C15.5547 94.6875 15.097 94.4508 14.6393 94.4508C14.1816 94.4508 13.7239 94.6875 13.4327 95.0189C13.1414 95.3503 12.9334 95.8711 12.9334 96.3919C12.9334 96.9127 13.1414 97.4335 13.4327 97.7649C13.7239 98.0963 14.1816 98.3331 14.6393 98.3331ZM17.3023 99.3747C16.6366 100.132 15.6796 100.606 14.6393 100.606C13.5991 100.606 12.6837 100.132 11.9764 99.3747C11.3106 98.6171 10.8945 97.5282 10.8945 96.3919C10.8945 95.2083 11.3106 94.1667 11.9764 93.3618C12.6421 92.6043 13.5991 92.1309 14.5977 92.1309C15.638 92.1309 16.5533 92.6043 17.2607 93.3618C17.9264 94.1194 18.3425 95.2083 18.3425 96.3919C18.3425 97.5755 17.9264 98.6171 17.2607 99.422L17.3023 99.3747Z"/><path fill="#F5F5F3" d="M77.8006 84.3681C78.3415 84.3681 78.7992 84.8889 78.7992 85.5044C78.7992 86.1199 78.3415 86.6407 77.8006 86.6407H64.2777C63.9864 86.6407 63.7368 86.4986 63.5704 86.3092L59.2014 81.338C58.9934 81.1013 58.9102 80.8172 58.9102 80.5331V75.1832C58.9102 74.5677 59.3679 74.0469 59.9088 74.0469C60.4497 74.0469 60.9074 74.5677 60.9074 75.1832V80.0597L64.6938 84.3681H77.8006Z"/><path fill="#F5F5F3" d="M81.379 87.3975C81.8367 87.3975 82.2944 87.1608 82.5856 86.8294C82.8769 86.498 83.0849 85.9772 83.0849 85.4564C83.0849 84.9356 82.8769 84.4148 82.5856 84.0834C82.2944 83.7519 81.8367 83.5152 81.379 83.5152C80.9213 83.5152 80.4636 83.7519 80.1723 84.0834C79.8811 84.4148 79.673 84.9356 79.673 85.4564C79.673 85.9772 79.8811 86.498 80.1723 86.8294C80.4636 87.1608 80.9213 87.3975 81.379 87.3975ZM84.042 88.4391C83.3762 89.1966 82.4192 89.6701 81.4206 89.6701C80.3804 89.6701 79.465 89.1966 78.7576 88.4391C78.0919 87.6816 77.6758 86.5927 77.6758 85.409C77.6758 84.2254 78.0919 83.1838 78.7576 82.4263C79.4234 81.6688 80.3804 81.1953 81.379 81.1953C82.4192 81.1953 83.3346 81.6688 84.042 82.4263C84.7077 83.1838 85.1238 84.2727 85.1238 85.4564C85.1238 86.64 84.7077 87.6816 84.042 88.4391Z"/><path fill="#F5F5F3" d="M53.5377 38.0651C54.2034 38.8227 54.245 40.0536 53.5793 40.8585C52.9135 41.6634 51.8317 41.6634 51.166 40.9058L53.5793 38.0651H53.5377ZM22.0397 29.0696L21.4572 25.1873L22.4974 24.9979L23.5376 24.8559L24.5778 24.7612L25.6181 24.6665L26.6583 24.6191H27.6985L28.7387 24.6665L29.779 24.7138L30.8192 24.8085L31.8594 24.9506L32.8996 25.1399L33.9399 25.3767L34.9801 25.6607L36.0203 25.9448L37.0189 26.2762L38.0175 26.655L39.0161 27.0811L40.0148 27.5545L41.0134 28.028L42.012 28.5488L43.0106 29.1169L44.0092 29.7324L45.0078 30.3952L45.9648 31.1054L46.9218 31.8156L47.8788 32.5731L48.8359 33.378L49.7929 34.2302L50.7499 35.1297L51.7069 36.0766L52.6639 37.0709L53.6209 38.0651L51.2076 40.9058L50.3338 39.9589L49.46 39.0594L48.5862 38.2072L47.7124 37.355L46.8386 36.5501L45.9648 35.7926L45.091 35.0824L44.1756 34.4196L43.3019 33.8041L42.4281 33.1886L41.5127 32.6205L40.5973 32.0997L39.6819 31.6262L38.7665 31.2001L37.8511 30.774L36.9357 30.3952L36.0203 30.0638L35.1049 29.7798L34.1895 29.4957L33.2741 29.259L32.3587 29.0696L31.4433 28.9275L30.5279 28.7855L29.6125 28.6908L28.6971 28.6435L27.7817 28.5961H26.8663L25.9093 28.6435L24.9523 28.7382L23.9953 28.8329L23.0383 28.9749L22.0813 29.1643L22.0397 29.0696ZM22.0397 29.0696C21.0827 29.259 20.2089 28.5488 20.0425 27.4598C19.876 26.3709 20.5002 25.3767 21.4572 25.1873L22.0397 29.0696Z"/><path fill="#F5F5F3" d="M53.6647 23.1981C54.2889 24.0503 54.164 25.2813 53.4567 25.9441C52.7493 26.6543 51.6675 26.5122 51.0434 25.7074L53.6647 23.1981ZM38.2278 17.706L38.6439 13.8238L39.1432 13.9184L39.6425 14.0131L40.1418 14.1078L40.6411 14.2499L41.1404 14.3919L41.6397 14.5339L42.139 14.7233L42.6384 14.9127L43.1377 15.1021L43.637 15.2914L44.1363 15.5282L44.6356 15.7649L45.1349 16.0016L45.6342 16.2857L46.1335 16.5698L46.6328 16.8538L47.1321 17.1379L47.6314 17.4693L48.1307 17.8007L48.63 18.1321L49.0877 18.5109L49.5454 18.8897L50.0031 19.2684L50.4608 19.6472L50.9185 20.0733L51.3346 20.4994L51.7507 20.9255L52.1668 21.3516L52.5829 21.7777L52.9574 22.2512L53.3319 22.7246L53.7063 23.1981L51.085 25.7074L50.7937 25.3286L50.5024 24.9498L50.1696 24.5711L49.8367 24.1923L49.5038 23.8136L49.1293 23.4348L48.7549 23.1034L48.3804 22.772L48.0059 22.4405L47.5898 22.1091L47.1737 21.7777L46.7576 21.4463L46.3415 21.1622L45.9255 20.8782L45.5094 20.5941L45.0933 20.31L44.6772 20.0733L44.2611 19.8366L43.845 19.5998L43.3873 19.3631L42.9296 19.1737L42.4719 18.9844L42.0558 18.795L41.6397 18.6056L41.2236 18.4636L40.8076 18.3215L40.3915 18.1795L39.9754 18.0375L39.5593 17.9428L39.1432 17.8481L38.7271 17.7534L38.3526 17.706H38.2278ZM38.2278 17.706C37.2708 17.564 36.6051 16.6171 36.7299 15.5282C36.8547 14.4392 37.6869 13.6817 38.6439 13.8238L38.2278 17.706Z"/><path fill="#F5F5F3" d="M53.3743 76.2713C52.5837 76.8394 51.5019 76.5554 51.0026 75.6558C50.5033 74.7562 50.7529 73.5253 51.5435 72.9571L53.3743 76.2713ZM12.0566 46.0178L10.7251 42.3722L13.4713 41.1886L16.2175 40.2891L18.9637 39.6262L21.7099 39.2001L24.4144 39.0107H27.0774L29.6988 39.2001L32.2785 39.5789L34.7751 40.147L37.23 40.9045L39.6017 41.8041L41.8902 42.8457L44.0539 43.982L46.1343 45.2603L48.0899 46.6333L49.9207 48.101L51.6267 49.6634L53.2078 51.3205L54.6225 53.0249L55.8708 54.7766L56.9526 56.5758L57.868 58.4222L58.5754 60.316L59.0747 62.2572L59.3243 64.1983V66.1395L59.0747 68.0806L58.5338 69.9271L57.7016 71.6788L56.5782 73.3359L55.1635 74.8509L53.4991 76.2239L51.6683 72.9098L52.9998 71.8209L54.04 70.6846L54.8306 69.501L55.4131 68.3173L55.7876 67.0864L55.954 65.808V64.4824L55.7876 63.1094L55.4131 61.6417L54.8722 60.174L54.1232 58.6589L53.2078 57.1439L52.126 55.6289L50.8777 54.1612L49.5046 52.6935L47.9651 51.2731L46.3008 49.9474L44.5116 48.7165L42.6392 47.5329L40.6419 46.4913L38.5615 45.5444L36.3978 44.7395L34.1509 44.0767L31.8624 43.5559L29.4907 43.1771L27.0774 42.9877H24.6225L22.1676 43.1771L19.671 43.5559L17.1745 44.1714L14.678 45.0236L12.1814 46.1125L12.0566 46.0178ZM12.0566 46.0178C11.1828 46.4439 10.1842 45.9705 9.8097 44.9762C9.43522 43.982 9.85131 42.8457 10.7251 42.4196L12.0566 46.0652V46.0178Z"/><path fill="#F5F5F3" d="M51.1665 38.0631L53.5798 40.9039C52.9141 41.6614 51.7906 41.6614 51.1665 40.8565C50.5007 40.0516 50.5424 38.8207 51.2081 38.0631H51.1665ZM82.498 29.0202L81.541 28.8309L80.584 28.6888L79.6686 28.5941L78.7532 28.5468L77.8378 28.4994H76.9224L76.007 28.5468L75.0916 28.5941L74.1762 28.6888L73.2608 28.8309L72.3454 29.0202L71.43 29.2096L70.5147 29.4463L69.5992 29.7304L68.6839 30.0145L67.7685 30.3459L66.8531 30.7247L65.9377 31.1508L65.0223 31.5769L64.1485 32.0503L63.2747 32.5711L62.4009 33.1393L61.5271 33.7547L60.6533 34.3702L59.7795 35.0331L58.9058 35.7432L58.032 36.5008L57.1582 37.3056L56.2844 38.1105L55.4106 38.9627L54.5368 39.8623L53.663 40.8092L51.2497 37.9685L52.1651 36.9742L53.0805 36.0273L54.0375 35.0804L54.9945 34.1809L55.9515 33.3286L56.9085 32.5238L57.8655 31.7663L58.8225 31.0561L59.7795 30.3459L60.7365 29.6831L61.7352 29.0676L62.7338 28.4994L63.7324 27.9786L64.731 27.5052L65.7296 27.0317L66.7282 26.6056L67.7269 26.2269L68.7255 25.8955L69.7241 25.6114L70.7227 25.3273L71.7629 25.0906L72.8031 24.9012L73.8434 24.7592L74.8836 24.6645L75.9238 24.5698L76.964 24.5225H78.0043L79.0445 24.5698L80.0847 24.6645L81.1249 24.7592L82.1652 24.9012L83.2054 25.0906L82.6229 28.9729L82.498 29.0202ZM82.498 29.0202L83.0805 25.1379C84.0376 25.3273 84.6617 26.3216 84.4953 27.4105C84.3288 28.4994 83.455 29.2096 82.498 29.0202Z"/><path fill="#F5F5F3" d="M51.0827 23.1973L53.7041 25.7065C53.08 26.5587 52.0397 26.6534 51.2908 25.9433C50.5834 25.2331 50.4586 24.0021 51.0827 23.1973ZM66.5196 17.7052L66.1452 17.7526L65.7291 17.8473L65.313 17.942L64.8969 18.0366L64.4808 18.1787L64.0647 18.3207L63.6486 18.4627L63.2325 18.6048L62.8165 18.7942L62.4004 18.9835L61.9427 19.1729L61.485 19.3623L61.0273 19.599L60.6112 19.8358L60.1951 20.0725L59.779 20.3092L59.3629 20.5933L58.9468 20.8773L58.5307 21.1614L58.1146 21.4455L57.6986 21.7769L57.2825 22.1083L56.8664 22.4397L56.4919 22.7711L56.1174 23.1026L55.7429 23.434L55.3685 23.8127L55.0356 24.1915L54.7027 24.5703L54.3698 24.949L54.0786 25.3278L53.7873 25.7065L51.166 23.1973L51.5404 22.7238L51.9149 22.2503L52.2894 21.7769L52.7055 21.3508L53.1216 20.9247L53.5377 20.4986L53.9538 20.0725L54.4114 19.6464L54.8691 19.2676L55.3268 18.8889L55.7845 18.5101L56.2422 18.1313L56.7415 17.7999L57.2409 17.4685L57.7402 17.1371L58.2395 16.853L58.7388 16.5689L59.2381 16.2849L59.7374 16.0008L60.2367 15.7641L60.736 15.5274L61.2353 15.2906L61.7346 15.1012L62.2339 14.9119L62.7332 14.7225L63.2325 14.5331L63.7319 14.3911L64.2312 14.249L64.7305 14.107L65.2298 14.0123L65.7291 13.9176L66.2284 13.8229L66.6445 17.7052H66.5196ZM66.5196 17.7052L66.1036 13.8229C67.0606 13.6809 67.8927 14.4858 68.0176 15.5274C68.1424 16.6163 67.4767 17.5632 66.5196 17.7052Z"/><path fill="#F5F5F3" d="M51.3799 76.2727L53.2107 72.9585C54.0013 73.5267 54.251 74.7577 53.7517 75.6572C53.2523 76.5568 52.1705 76.8408 51.3799 76.2727ZM92.6976 46.0192L90.2011 44.9303L87.7045 44.0781L85.208 43.4626L82.7115 43.0838L80.2565 42.8944H77.8016L75.3883 43.0838L73.0166 43.4626L70.7281 43.9834L68.4812 44.6462L66.3176 45.4511L64.2371 46.398L62.2399 47.4396L60.3675 48.6232L58.5783 49.8542L56.9139 51.1798L55.3744 52.6002L54.0013 54.0679L52.753 55.5356L51.6712 57.0506L50.7558 58.5657L50.0068 60.0807L49.4659 61.5484L49.0914 63.0161L48.925 64.3891V65.7148L49.0914 66.9931L49.4659 68.224L50.0485 69.4077L50.839 70.5913L51.8792 71.7276L53.2107 72.8165L51.3799 76.1307L49.7156 74.7577L48.3009 73.2426L47.1774 71.5855L46.3453 69.7864L45.8043 67.94L45.5547 65.9988V64.0577L45.8043 62.1165L46.3036 60.1754L47.011 58.2816L47.8848 56.4351L48.9666 54.636L50.2149 52.8842L51.6296 51.1798L53.1691 49.5228L54.8751 47.9604L56.7059 46.4927L58.6615 45.1197L60.742 43.8413L62.9056 42.7051L65.1941 41.6635L67.5658 40.7639L70.0207 40.0064L72.5173 39.4383L75.097 39.0595L77.7184 38.8701H80.3814L83.086 39.0595L85.8321 39.4856L88.5783 40.1484L91.3245 41.048L94.0707 42.2316L92.7392 45.8772L92.6976 46.0192ZM92.6976 46.0192L94.0291 42.3736C94.9029 42.7998 95.319 43.936 94.9445 44.9303C94.57 45.9245 93.5714 46.398 92.6976 45.9719V46.0192Z"/></svg>