<svg width="126" height="33" viewBox="0 0 126 33" fill="none" xmlns="http://www.w3.org/2000/svg">
<path fill-rule="evenodd" clip-rule="evenodd" d="M124.333 19.8448V17.6519C122.496 18.2891 122.964 18.8889 121.034 19.5449L122.271 9.33009C120.153 8.48666 120.116 8.80529 119.366 11.2418C118.372 14.4281 113.481 19.1326 110.201 20.0509C111.1 18.4391 113.799 15.1216 111.588 12.9287C109.32 10.6983 106.396 13.5847 105.402 14.3906L105.871 12.4976C102.704 12.2727 103.491 13.4722 101.279 15.3278C100.005 16.3961 98.9925 17.9892 97.0057 18.2142C97.1932 16.1712 98.1678 13.566 96.6309 12.179C95.2252 10.9045 92.7136 11.3356 91.083 12.3102C87.4657 14.4281 88.8526 16.8834 86.6972 18.5328C85.9475 19.1138 85.3102 19.5074 84.3356 19.8073C84.6168 18.3828 85.2165 17.4082 85.7975 16.2462C90.3708 6.9685 78.6003 16.9397 78.0943 17.1458C79.8374 12.2727 86.2286 2.22658 83.0424 1.53309C81.2618 1.1395 78.0943 10.4734 77.7007 11.5605C76.801 14.1095 76.2387 14.7655 74.7206 16.115C73.2961 17.3895 72.5464 18.7952 70.3348 19.4887C70.8221 16.8459 70.7658 15.7963 71.0095 13.1349C71.2157 10.942 72.5839 9.66745 70.391 8.82403C68.348 8.84277 69.0977 14.147 63.25 17.5769L63.2687 20.0697C65.8365 18.7952 65.293 16.9584 68.1981 16.115C67.8045 22.4688 65.9864 19.6948 64.0934 21.0443C64.487 23.2934 66.3426 23.0873 69.5663 22.2813C71.1595 21.8877 73.5773 20.2571 73.9896 19.5262L73.6897 22.5437C77.0634 22.3001 77.7382 19.9572 80.6246 17.933L82.5176 16.4336C82.5363 16.3399 82.6488 16.2087 82.78 16.2274L82.9487 16.6773C82.049 18.0642 80.7932 20.3508 81.2056 22.525C83.7733 22.8998 85.985 21.869 87.4657 20.4258C87.9155 20.8194 90.3146 24.9428 94.6629 21.7378C96.7058 20.2384 96.9308 21.0818 98.5614 20.1634C99.8921 19.4324 99.9296 18.664 101.56 17.8955C101.017 20.557 95.4688 30.4719 98.805 30.9218C100.436 31.1279 100.473 29.1412 100.979 27.042C101.448 25.1302 101.879 23.6683 102.629 21.869C103.603 19.5636 105.271 17.2208 107.127 15.7401C107.314 15.5902 107.97 15.1403 108.195 15.0841C108.533 14.9904 108.551 15.0279 108.926 15.0654L109.432 15.2341C109.695 16.6023 108.439 18.0267 107.727 19.1138C106.508 20.9693 106.771 20.2009 104.915 20.6132C104.821 20.632 104.709 20.6695 104.634 20.6882C104.559 20.7069 104.428 20.7632 104.372 20.7819L103.959 22.0752C105.89 23.687 111.625 22.1314 113.125 21.0631C115.167 19.6199 116.404 17.5019 118.822 16.0587C118.972 17.2958 118.804 18.7202 118.204 19.6574C117.398 20.9693 116.461 20.5195 114.811 20.6882C114.868 22.45 114.736 22.5812 116.536 22.7312C120.828 23.0498 122.533 20.8194 124.37 19.8823L124.333 19.8448ZM90.8394 20.0884C90.1084 16.9584 91.6828 13.0037 94.6441 14.5218C94.7191 16.7147 94.2318 15.0279 93.6508 16.9959C93.2384 18.4578 93.8007 18.4766 93.3884 19.8073C92.2638 20.2759 92.1701 20.2571 90.8581 20.0884H90.8394Z" fill="white"/>
<path d="M104.674 30.0794C104.509 30.0794 104.367 30.0203 104.249 29.902C104.131 29.7837 104.071 29.642 104.071 29.4768C104.071 29.3117 104.131 29.1699 104.249 29.0516C104.367 28.9334 104.509 28.8742 104.674 28.8742C104.839 28.8742 104.981 28.9334 105.099 29.0516C105.217 29.1699 105.277 29.3117 105.277 29.4768C105.277 29.5862 105.249 29.6866 105.193 29.7781C105.139 29.8696 105.067 29.9433 104.975 29.9991C104.886 30.0527 104.786 30.0794 104.674 30.0794ZM108.783 30.133C108.301 30.133 107.886 30.0192 107.538 29.7915C107.19 29.5639 106.922 29.2503 106.735 28.8508C106.547 28.4513 106.453 27.9948 106.453 27.4815C106.453 26.9592 106.549 26.4983 106.741 26.0988C106.935 25.6971 107.206 25.3835 107.551 25.1581C107.9 24.9304 108.306 24.8166 108.77 24.8166C109.132 24.8166 109.458 24.8835 109.748 25.0175C110.038 25.1514 110.276 25.3389 110.461 25.5799C110.646 25.8209 110.761 26.1022 110.806 26.4236H110.016C109.955 26.1892 109.821 25.9816 109.614 25.8009C109.408 25.6178 109.132 25.5263 108.783 25.5263C108.475 25.5263 108.205 25.6067 107.973 25.7674C107.743 25.9258 107.564 26.1502 107.434 26.4403C107.307 26.7282 107.243 27.0664 107.243 27.4547C107.243 27.852 107.306 28.1979 107.431 28.4926C107.558 28.7872 107.737 29.0159 107.967 29.1789C108.199 29.3418 108.471 29.4233 108.783 29.4233C108.989 29.4233 109.175 29.3876 109.343 29.3161C109.51 29.2447 109.652 29.142 109.768 29.0081C109.884 28.8742 109.966 28.7135 110.016 28.526H110.806C110.761 28.8296 110.65 29.103 110.474 29.3463C110.3 29.5873 110.069 29.7793 109.781 29.9221C109.495 30.0627 109.163 30.133 108.783 30.133ZM114.05 30.133C113.585 30.133 113.178 30.0225 112.828 29.8016C112.48 29.5806 112.207 29.2715 112.011 28.8742C111.817 28.4769 111.72 28.0127 111.72 27.4815C111.72 26.9458 111.817 26.4782 112.011 26.0787C112.207 25.6792 112.48 25.369 112.828 25.148C113.178 24.9271 113.585 24.8166 114.05 24.8166C114.514 24.8166 114.92 24.9271 115.268 25.148C115.619 25.369 115.891 25.6792 116.085 26.0787C116.282 26.4782 116.38 26.9458 116.38 27.4815C116.38 28.0127 116.282 28.4769 116.085 28.8742C115.891 29.2715 115.619 29.5806 115.268 29.8016C114.92 30.0225 114.514 30.133 114.05 30.133ZM114.05 29.4233C114.402 29.4233 114.692 29.3329 114.92 29.1521C115.148 28.9713 115.316 28.7336 115.426 28.439C115.535 28.1444 115.59 27.8252 115.59 27.4815C115.59 27.1378 115.535 26.8175 115.426 26.5207C115.316 26.2238 115.148 25.9839 114.92 25.8009C114.692 25.6178 114.402 25.5263 114.05 25.5263C113.697 25.5263 113.407 25.6178 113.179 25.8009C112.952 25.9839 112.783 26.2238 112.674 26.5207C112.564 26.8175 112.51 27.1378 112.51 27.4815C112.51 27.8252 112.564 28.1444 112.674 28.439C112.783 28.7336 112.952 28.9713 113.179 29.1521C113.407 29.3329 113.697 29.4233 114.05 29.4233ZM117.586 30.0259V24.8835H118.349V25.687H118.416C118.523 25.4125 118.696 25.1994 118.935 25.0476C119.174 24.8936 119.461 24.8166 119.795 24.8166C120.135 24.8166 120.417 24.8936 120.642 25.0476C120.87 25.1994 121.048 25.4125 121.175 25.687H121.228C121.36 25.4214 121.558 25.2105 121.821 25.0543C122.084 24.8958 122.4 24.8166 122.768 24.8166C123.228 24.8166 123.604 24.9605 123.897 25.2485C124.189 25.5341 124.335 25.9794 124.335 26.5843V30.0259H123.545V26.5843C123.545 26.2048 123.441 25.9337 123.234 25.7707C123.026 25.6078 122.782 25.5263 122.501 25.5263C122.139 25.5263 121.859 25.6357 121.66 25.8544C121.462 26.0709 121.362 26.3454 121.362 26.678V30.0259H120.559V26.5039C120.559 26.2115 120.464 25.9761 120.274 25.7975C120.085 25.6167 119.84 25.5263 119.541 25.5263C119.336 25.5263 119.144 25.581 118.965 25.6904C118.789 25.7997 118.646 25.9515 118.537 26.1457C118.43 26.3376 118.376 26.5597 118.376 26.8119V30.0259H117.586Z" fill="white"/>
<path d="M7.72106 8.42625C8.97069 8.42625 10.0775 8.73653 11.0415 9.3571C12.0233 9.97767 12.7999 10.8287 13.3711 11.9103C13.9424 12.9741 14.228 14.2153 14.228 15.6337C14.228 17.0521 13.9424 18.311 13.3711 19.4103C12.7999 20.4919 12.0323 21.3429 11.0683 21.9635C10.1043 22.584 9.01532 22.8943 7.8014 22.8943C7.12303 22.8943 6.48037 22.788 5.87341 22.5752C5.26645 22.3624 4.7309 22.0876 4.26675 21.7507C3.80261 21.3961 3.4188 21.0238 3.11532 20.6337C2.82969 20.2436 2.65117 19.8801 2.57976 19.5433L3.30276 19.1975V26.6177C3.30276 27.0078 3.16887 27.327 2.9011 27.5752C2.65117 27.8411 2.33877 27.9741 1.96388 27.9741C1.57114 27.9741 1.24981 27.8411 0.999887 27.5752C0.749962 27.327 0.625 27.0078 0.625 26.6177V9.9688C0.625 9.59646 0.749962 9.27731 0.999887 9.01136C1.24981 8.7454 1.57114 8.61242 1.96388 8.61242C2.33877 8.61242 2.65117 8.7454 2.9011 9.01136C3.16887 9.27731 3.30276 9.59646 3.30276 9.9688V11.8039L2.87432 11.5645C2.92787 11.2277 3.09747 10.8819 3.38309 10.5273C3.66872 10.155 4.02576 9.80923 4.4542 9.49008C4.90049 9.17093 5.40034 8.91384 5.95374 8.7188C6.525 8.52377 7.11411 8.42625 7.72106 8.42625ZM7.42651 10.8731C6.56963 10.8731 5.81985 11.0858 5.17719 11.5114C4.55238 11.9192 4.06146 12.4777 3.70442 13.1869C3.34739 13.8961 3.16887 14.7117 3.16887 15.6337C3.16887 16.538 3.34739 17.3624 3.70442 18.1071C4.06146 18.834 4.55238 19.4103 5.17719 19.8358C5.81985 20.2436 6.56963 20.4475 7.42651 20.4475C8.26554 20.4475 8.99746 20.2436 9.62227 19.8358C10.2471 19.4103 10.738 18.834 11.095 18.1071C11.4699 17.3624 11.6574 16.538 11.6574 15.6337C11.6574 14.7294 11.4699 13.9227 11.095 13.2135C10.738 12.4865 10.2471 11.9192 9.62227 11.5114C8.99746 11.0858 8.26554 10.8731 7.42651 10.8731Z" fill="white"/>
<path d="M28.7975 8.45284C29.1903 8.45284 29.5116 8.58582 29.7615 8.85178C30.0115 9.10001 30.1364 9.41916 30.1364 9.80923V21.2986C30.1364 21.6887 30.0115 22.0167 29.7615 22.2826C29.5116 22.5309 29.1903 22.655 28.7975 22.655C28.4227 22.655 28.1013 22.5309 27.8336 22.2826C27.5836 22.0167 27.4587 21.6887 27.4587 21.2986V19.3837L28.021 19.4635C28.021 19.7826 27.8871 20.1372 27.6193 20.5273C27.3694 20.9174 27.0213 21.2986 26.575 21.6709C26.1287 22.0255 25.6021 22.327 24.9951 22.5752C24.3882 22.8057 23.7366 22.9209 23.0404 22.9209C21.8086 22.9209 20.7018 22.6106 19.7199 21.9901C18.7381 21.3518 17.9615 20.483 17.3903 19.3837C16.819 18.2844 16.5334 17.0344 16.5334 15.6337C16.5334 14.1975 16.819 12.9387 17.3903 11.8571C17.9615 10.7578 18.7292 9.89788 19.6932 9.27731C20.675 8.65674 21.764 8.34646 22.96 8.34646C23.7277 8.34646 24.4328 8.47057 25.0755 8.7188C25.736 8.96703 26.3072 9.28618 26.7892 9.67625C27.2712 10.0663 27.6372 10.483 27.8871 10.9262C28.1549 11.3518 28.2888 11.7596 28.2888 12.1497L27.4587 12.2294V9.80923C27.4587 9.43689 27.5836 9.11774 27.8336 8.85178C28.1013 8.58582 28.4227 8.45284 28.7975 8.45284ZM23.3349 20.4741C24.1739 20.4741 24.9148 20.2614 25.5575 19.8358C26.2001 19.4103 26.7 18.834 27.057 18.1071C27.414 17.3624 27.5926 16.538 27.5926 15.6337C27.5926 14.7117 27.414 13.8872 27.057 13.1603C26.7 12.4333 26.2001 11.8571 25.5575 11.4316C24.9148 11.006 24.1739 10.7933 23.3349 10.7933C22.5137 10.7933 21.7818 11.006 21.1392 11.4316C20.5143 11.8571 20.0145 12.4333 19.6396 13.1603C19.2826 13.8872 19.1041 14.7117 19.1041 15.6337C19.1041 16.538 19.2826 17.3624 19.6396 18.1071C20.0145 18.834 20.5143 19.4103 21.1392 19.8358C21.7818 20.2614 22.5137 20.4741 23.3349 20.4741Z" fill="white"/>
<path d="M36.7798 21.2986C36.7798 21.6887 36.6459 22.0167 36.3781 22.2826C36.1282 22.5309 35.8158 22.655 35.4409 22.655C35.066 22.655 34.7447 22.5309 34.4769 22.2826C34.227 22.0167 34.102 21.6887 34.102 21.2986V2.3305C34.102 1.94043 34.2359 1.62128 34.5037 1.37306C34.7715 1.1071 35.0928 0.974121 35.4677 0.974121C35.8604 0.974121 36.1728 1.1071 36.4049 1.37306C36.6548 1.62128 36.7798 1.94043 36.7798 2.3305V21.2986Z" fill="white"/>
<path d="M47.8345 8.42625C49.1556 8.42625 50.1731 8.75426 50.8872 9.41029C51.6012 10.0486 52.0743 10.9174 52.3064 12.0167L51.8779 11.8837L52.0654 11.4582C52.2975 10.9972 52.6456 10.5362 53.1097 10.0752C53.5917 9.59646 54.163 9.20639 54.8235 8.90497C55.484 8.58582 56.1891 8.42625 56.9389 8.42625C58.1707 8.42625 59.1258 8.69221 59.8041 9.22412C60.4825 9.73831 60.9556 10.4387 61.2233 11.3252C61.4911 12.194 61.625 13.1692 61.625 14.2507V21.2986C61.625 21.6887 61.5 22.0167 61.2501 22.2826C61.0002 22.5309 60.6789 22.655 60.2861 22.655C59.9112 22.655 59.5899 22.5309 59.3221 22.2826C59.0722 22.0167 58.9472 21.6887 58.9472 21.2986V14.2773C58.9472 13.6567 58.858 13.0894 58.6795 12.5752C58.5188 12.061 58.2242 11.6532 57.7958 11.3518C57.3852 11.0326 56.814 10.8731 56.082 10.8731C55.3858 10.8731 54.761 11.0326 54.2076 11.3518C53.6721 11.6532 53.2525 12.061 52.9491 12.5752C52.6456 13.0894 52.4938 13.6567 52.4938 14.2773V21.2986C52.4938 21.6887 52.3689 22.0167 52.119 22.2826C51.869 22.5309 51.5477 22.655 51.155 22.655C50.7622 22.655 50.4409 22.5309 50.191 22.2826C49.941 22.0167 49.8161 21.6887 49.8161 21.2986V14.2507C49.8161 13.6301 49.7268 13.0628 49.5483 12.5486C49.3876 12.0344 49.102 11.6266 48.6914 11.3252C48.2808 11.0238 47.7096 10.8731 46.9776 10.8731C46.2814 10.8731 45.6656 11.0238 45.13 11.3252C44.5944 11.6266 44.1749 12.0344 43.8714 12.5486C43.5858 13.0628 43.443 13.6301 43.443 14.2507V21.2986C43.443 21.6887 43.3091 22.0167 43.0413 22.2826C42.7914 22.5309 42.479 22.655 42.1041 22.655C41.7114 22.655 41.3901 22.5309 41.1401 22.2826C40.8902 22.0167 40.7652 21.6887 40.7652 21.2986V10.022C40.7652 9.63192 40.8902 9.31277 41.1401 9.06455C41.3901 8.79859 41.7114 8.66561 42.1041 8.66561C42.479 8.66561 42.7914 8.79859 43.0413 9.06455C43.3091 9.31277 43.443 9.63192 43.443 10.022V11.5911L42.9342 11.8837C43.0592 11.4936 43.2645 11.0947 43.5501 10.6869C43.8357 10.2791 44.1928 9.90675 44.6212 9.56987C45.0675 9.23299 45.5584 8.95816 46.094 8.7454C46.6295 8.53263 47.2097 8.42625 47.8345 8.42625Z" fill="white"/>
</svg>
