<svg width="315" height="367" viewBox="0 0 315 367" fill="none" xmlns="http://www.w3.org/2000/svg">
<path d="M206.589 220.141C207.354 220.142 207.981 219.521 207.982 218.762C207.983 218.003 207.357 217.381 206.593 217.38C205.828 217.38 205.2 218.001 205.199 218.759C205.198 219.53 205.824 220.14 206.589 220.141Z" fill="#A9D99F"/>
<path d="M209.655 227.344C210.42 227.345 211.048 226.724 211.049 225.965C211.05 225.207 210.424 224.584 209.659 224.583C208.894 224.583 208.266 225.204 208.265 225.962C208.277 226.733 208.89 227.343 209.655 227.344Z" fill="#A9D99F"/>
<path d="M202.546 215.897C203.311 215.898 203.938 215.276 203.939 214.518C203.94 213.759 203.314 213.137 202.55 213.136C201.785 213.136 201.157 213.757 201.156 214.515C201.155 215.286 201.781 215.896 202.546 215.897Z" fill="#A9D99F"/>
<path d="M169.813 360.409C169.93 360.53 170.07 360.626 170.225 360.691C170.38 360.757 170.547 360.79 170.715 360.791C170.884 360.791 171.051 360.757 171.206 360.692C171.361 360.627 171.501 360.531 171.618 360.411C171.789 360.235 171.905 360.014 171.95 359.774C171.995 359.534 171.967 359.286 171.872 359.062C171.776 358.837 171.615 358.645 171.411 358.511C171.206 358.376 170.965 358.304 170.719 358.304C170.473 358.303 170.233 358.375 170.027 358.509C169.822 358.644 169.661 358.835 169.564 359.06C169.468 359.284 169.44 359.532 169.484 359.772C169.529 360.012 169.643 360.233 169.813 360.409Z" fill="#A9D99F"/>
<path d="M257.159 182.667C255.948 182.666 254.964 183.639 254.962 184.841C254.961 186.043 255.942 187.018 257.154 187.019C258.365 187.02 259.349 186.047 259.351 184.845C259.352 183.643 258.371 182.668 257.159 182.667Z" fill="#A9D99F"/>
<path d="M304.197 276.955C304.498 277.079 304.836 277.08 305.137 276.956C305.3 276.894 305.426 276.807 305.551 276.695C305.777 276.459 305.915 276.148 305.916 275.825C305.917 275.489 305.792 275.19 305.554 274.954C305.316 274.717 305.015 274.593 304.677 274.592C304.339 274.592 304.038 274.716 303.799 274.952C303.561 275.188 303.435 275.499 303.434 275.822C303.434 276.146 303.571 276.457 303.796 276.693C303.909 276.818 304.047 276.905 304.197 276.955Z" fill="#A9D99F"/>
<path d="M299.259 275.73C299.56 275.855 299.899 275.855 300.2 275.731C300.35 275.669 300.488 275.582 300.614 275.47C300.84 275.234 300.978 274.923 300.979 274.6C300.979 274.264 300.854 273.966 300.616 273.729C300.379 273.493 300.078 273.368 299.74 273.368C299.401 273.368 299.1 273.492 298.862 273.728C298.623 273.964 298.497 274.262 298.497 274.598C298.496 274.921 298.634 275.232 298.859 275.469C298.971 275.581 299.097 275.668 299.259 275.73Z" fill="#A9D99F"/>
<path d="M293.89 276.696C294.353 277.156 295.18 277.157 295.645 276.697C295.871 276.461 296.009 276.15 296.01 275.827C296.01 275.491 295.885 275.193 295.648 274.956C295.41 274.72 295.109 274.595 294.771 274.595C294.608 274.595 294.445 274.632 294.307 274.694C294.156 274.756 294.018 274.843 293.893 274.955C293.654 275.191 293.528 275.489 293.528 275.825C293.54 276.136 293.677 276.459 293.89 276.696Z" fill="#A9D99F"/>
<path d="M296.104 281.198C296.166 281.36 296.254 281.484 296.367 281.609C296.83 282.069 297.657 282.07 298.121 281.61C298.234 281.486 298.322 281.362 298.385 281.2C298.448 281.051 298.486 280.889 298.486 280.74C298.487 280.579 298.449 280.417 298.387 280.28C298.324 280.131 298.237 279.994 298.124 279.869C297.886 279.633 297.586 279.508 297.247 279.508C297.084 279.508 296.921 279.545 296.783 279.607C296.633 279.669 296.495 279.756 296.369 279.868C296.131 280.104 296.005 280.402 296.004 280.738C296.004 280.887 296.042 281.049 296.104 281.198Z" fill="#A9D99F"/>
<path d="M301.057 281.202C301.12 281.351 301.207 281.488 301.32 281.613C301.795 282.073 302.623 282.074 303.075 281.614C303.188 281.49 303.275 281.366 303.338 281.204C303.401 281.055 303.439 280.893 303.439 280.744C303.44 280.408 303.315 280.11 303.077 279.873C302.952 279.761 302.814 279.674 302.664 279.612C302.514 279.55 302.351 279.512 302.188 279.512C301.85 279.512 301.548 279.636 301.31 279.872C301.197 279.996 301.109 280.133 301.046 280.282C300.971 280.431 300.945 280.593 300.945 280.742C300.957 280.891 300.982 281.053 301.057 281.202Z" fill="#A9D99F"/>
<path d="M300.592 284.771C300.354 284.535 300.054 284.41 299.715 284.41C299.552 284.41 299.389 284.447 299.251 284.509C299.101 284.571 298.963 284.658 298.837 284.77C298.724 284.894 298.636 285.03 298.573 285.18C298.511 285.329 298.473 285.49 298.472 285.64C298.472 285.975 298.609 286.274 298.835 286.51C299.185 286.847 299.724 286.971 300.188 286.773C300.351 286.711 300.476 286.624 300.602 286.512C300.828 286.276 300.966 285.965 300.967 285.642C300.967 285.48 300.93 285.319 300.867 285.182C300.792 285.032 300.705 284.896 300.592 284.771Z" fill="#A9D99F"/>
<path d="M149.334 184.651C149.634 184.776 149.973 184.776 150.274 184.652C150.437 184.59 150.562 184.503 150.688 184.391C150.914 184.155 151.052 183.844 151.053 183.521C151.053 183.185 150.928 182.887 150.691 182.65C150.453 182.414 150.152 182.289 149.814 182.289C149.475 182.288 149.174 182.413 148.936 182.649C148.697 182.885 148.571 183.195 148.571 183.519C148.57 183.842 148.708 184.153 148.933 184.39C149.046 184.514 149.183 184.601 149.334 184.651Z" fill="#A9D99F"/>
<path d="M144.396 183.426C144.697 183.551 145.035 183.551 145.336 183.427C145.487 183.365 145.625 183.278 145.75 183.167C145.976 182.93 146.115 182.62 146.115 182.296C146.116 181.961 145.991 181.662 145.753 181.426C145.515 181.189 145.215 181.064 144.876 181.064C144.538 181.064 144.237 181.188 143.998 181.424C143.76 181.66 143.634 181.958 143.633 182.294C143.633 182.617 143.77 182.928 143.996 183.165C144.108 183.277 144.233 183.364 144.396 183.426Z" fill="#A9D99F"/>
<path d="M139.027 184.392C139.49 184.853 140.317 184.853 140.782 184.394C141.008 184.158 141.146 183.847 141.146 183.523C141.147 183.188 141.022 182.889 140.784 182.653C140.547 182.416 140.246 182.292 139.908 182.291C139.745 182.291 139.582 182.328 139.444 182.39C139.293 182.452 139.155 182.539 139.03 182.651C138.791 182.887 138.665 183.185 138.665 183.521C138.677 183.832 138.814 184.156 139.027 184.392Z" fill="#A9D99F"/>
<path d="M141.241 188.895C141.303 189.056 141.391 189.181 141.503 189.305C141.966 189.766 142.794 189.766 143.258 189.307C143.371 189.182 143.459 189.058 143.522 188.897C143.585 188.747 143.623 188.586 143.623 188.437C143.623 188.275 143.586 188.113 143.523 187.976C143.461 187.827 143.374 187.69 143.261 187.566C143.023 187.329 142.722 187.205 142.384 187.204C142.221 187.204 142.058 187.241 141.92 187.303C141.77 187.365 141.632 187.452 141.506 187.564C141.268 187.8 141.142 188.099 141.141 188.434C141.141 188.584 141.178 188.745 141.241 188.895Z" fill="#A9D99F"/>
<path d="M146.194 188.898C146.256 189.048 146.344 189.185 146.456 189.309C146.932 189.77 147.759 189.77 148.211 189.311C148.324 189.186 148.412 189.062 148.475 188.9C148.538 188.751 148.576 188.59 148.576 188.44C148.577 188.105 148.452 187.806 148.214 187.57C148.089 187.458 147.951 187.37 147.801 187.308C147.65 187.246 147.488 187.208 147.325 187.208C146.986 187.208 146.685 187.332 146.447 187.568C146.334 187.692 146.246 187.829 146.183 187.978C146.107 188.127 146.082 188.289 146.082 188.438C146.094 188.587 146.119 188.749 146.194 188.898Z" fill="#A9D99F"/>
<path d="M145.729 192.467C145.491 192.231 145.19 192.106 144.852 192.106C144.689 192.106 144.526 192.143 144.388 192.205C144.238 192.267 144.1 192.354 143.974 192.466C143.861 192.59 143.773 192.727 143.71 192.876C143.647 193.025 143.609 193.187 143.609 193.336C143.609 193.672 143.746 193.97 143.971 194.207C144.322 194.543 144.86 194.668 145.325 194.469C145.488 194.407 145.613 194.32 145.739 194.208C145.965 193.972 146.103 193.662 146.104 193.338C146.104 193.177 146.066 193.015 146.004 192.878C145.929 192.729 145.841 192.592 145.729 192.467Z" fill="#A9D99F"/>
<path d="M190.334 29.2604C190.634 29.385 190.973 29.3853 191.274 29.2613C191.437 29.1992 191.562 29.1123 191.688 29.0005C191.914 28.7644 192.052 28.4537 192.053 28.1304C192.053 27.7946 191.928 27.496 191.691 27.2596C191.453 27.0231 191.152 26.8984 190.814 26.8981C190.475 26.8978 190.174 27.0219 189.936 27.258C189.697 27.494 189.571 27.8048 189.571 28.1281C189.57 28.4515 189.708 28.7625 189.933 28.9989C190.046 29.1234 190.183 29.2105 190.334 29.2604Z" fill="#A9D99F"/>
<path d="M185.396 28.0358C185.697 28.1604 186.035 28.1607 186.336 28.0367C186.487 27.9746 186.625 27.8877 186.75 27.7759C186.976 27.5398 187.115 27.229 187.115 26.9057C187.116 26.57 186.991 26.2714 186.753 26.0349C186.515 25.7985 186.215 25.6738 185.876 25.6735C185.538 25.6732 185.237 25.7973 184.998 26.0334C184.76 26.2694 184.634 26.5678 184.633 26.9035C184.633 27.2268 184.77 27.5378 184.996 27.7743C185.108 27.8863 185.233 27.9735 185.396 28.0358Z" fill="#A9D99F"/>
<path d="M180.027 29.0014C180.49 29.4619 181.317 29.4627 181.782 29.003C182.008 28.7669 182.146 28.4562 182.146 28.1328C182.147 27.7971 182.022 27.4985 181.784 27.262C181.547 27.0256 181.246 26.9009 180.908 26.9006C180.745 26.9005 180.582 26.9376 180.444 26.9997C180.293 27.0617 180.155 27.1487 180.03 27.2605C179.791 27.4965 179.665 27.7949 179.665 28.1306C179.677 28.4415 179.814 28.7649 180.027 29.0014Z" fill="#A9D99F"/>
<path d="M182.241 33.5039C182.303 33.6656 182.391 33.79 182.503 33.9145C182.966 34.375 183.794 34.3758 184.258 33.9161C184.371 33.7918 184.459 33.6676 184.522 33.506C184.585 33.3568 184.623 33.1951 184.623 33.0459C184.623 32.8843 184.586 32.7226 184.523 32.5857C184.461 32.4365 184.374 32.2996 184.261 32.1751C184.023 31.9386 183.722 31.814 183.384 31.8137C183.221 31.8136 183.058 31.8507 182.92 31.9128C182.77 31.9748 182.632 32.0618 182.506 32.1736C182.268 32.4096 182.142 32.7079 182.141 33.0437C182.141 33.1929 182.178 33.3546 182.241 33.5039Z" fill="#A9D99F"/>
<path d="M187.194 33.5107C187.256 33.66 187.344 33.7969 187.456 33.9213C187.932 34.3819 188.759 34.3826 189.211 33.9229C189.324 33.7987 189.412 33.6744 189.475 33.5128C189.538 33.3636 189.576 33.202 189.576 33.0528C189.577 32.717 189.452 32.4184 189.214 32.182C189.089 32.0699 188.951 31.9828 188.801 31.9205C188.65 31.8582 188.488 31.8207 188.325 31.8206C187.986 31.8202 187.685 31.9443 187.447 32.1804C187.334 32.3046 187.246 32.4413 187.183 32.5905C187.107 32.7397 187.082 32.9013 187.082 33.0505C187.094 33.1998 187.119 33.3615 187.194 33.5107Z" fill="#A9D99F"/>
<path d="M186.729 37.0768C186.491 36.8403 186.19 36.7156 185.852 36.7153C185.689 36.7152 185.526 36.7523 185.388 36.8144C185.238 36.8764 185.1 36.9634 184.974 37.0752C184.861 37.1994 184.773 37.3361 184.71 37.4853C184.647 37.6345 184.609 37.7961 184.609 37.9453C184.609 38.2811 184.746 38.5796 184.971 38.8161C185.322 39.1522 185.86 39.277 186.325 39.0785C186.488 39.0165 186.613 38.9295 186.739 38.8177C186.965 38.5816 187.103 38.2709 187.104 37.9476C187.104 37.7859 187.066 37.6242 187.004 37.4874C186.929 37.3381 186.841 37.2012 186.729 37.0768Z" fill="#A9D99F"/>
<path d="M266.925 98.3452C267.69 98.3459 268.317 97.7247 268.318 96.9661C268.319 96.2076 267.693 95.5853 266.928 95.5846C266.164 95.5839 265.536 96.2051 265.535 96.9636C265.534 97.7346 266.16 98.3445 266.925 98.3452Z" fill="#A9D99F"/>
<path d="M269.991 105.548C270.756 105.549 271.384 104.928 271.385 104.169C271.386 103.411 270.76 102.788 269.995 102.788C269.23 102.787 268.602 103.408 268.601 104.166C268.613 104.937 269.226 105.547 269.991 105.548Z" fill="#A9D99F"/>
<path d="M262.882 94.0991C263.647 94.0998 264.274 93.4786 264.275 92.7201C264.276 91.9615 263.65 91.3392 262.886 91.3385C262.121 91.3378 261.493 91.959 261.492 92.7175C261.491 93.4885 262.117 94.0984 262.882 94.0991Z" fill="#A9D99F"/>
<path d="M230.122 256.606C230.239 256.726 230.379 256.822 230.534 256.887C230.689 256.953 230.855 256.987 231.024 256.987C231.192 256.987 231.359 256.954 231.514 256.888C231.67 256.823 231.81 256.727 231.927 256.607C232.098 256.432 232.213 256.21 232.258 255.97C232.303 255.73 232.276 255.483 232.18 255.258C232.084 255.033 231.924 254.842 231.719 254.707C231.514 254.572 231.274 254.5 231.028 254.5C230.782 254.5 230.541 254.571 230.336 254.706C230.131 254.84 229.97 255.031 229.873 255.256C229.777 255.48 229.749 255.728 229.793 255.968C229.837 256.208 229.952 256.43 230.122 256.606Z" fill="#A9D99F"/>
<path d="M41.2451 241.999C42.0098 242 42.6384 241.38 42.6404 240.621C42.6425 239.863 42.0173 239.24 41.2525 239.238C40.4877 239.236 39.8592 239.857 39.8571 240.615C39.8551 241.386 40.4803 241.997 41.2451 241.999Z" fill="#A9D99F"/>
<path d="M44.2998 249.205C45.0646 249.207 45.693 248.587 45.695 247.828C45.697 247.07 45.0718 246.447 44.307 246.445C43.5422 246.443 42.9137 247.063 42.9117 247.822C42.9222 248.593 43.535 249.204 44.2998 249.205Z" fill="#A9D99F"/>
<path d="M37.206 237.749C37.9708 237.75 38.5993 237.13 38.6014 236.371C38.6034 235.613 37.9783 234.99 37.2135 234.988C36.4487 234.986 35.8201 235.607 35.8181 236.365C35.816 237.136 36.4412 237.747 37.206 237.749Z" fill="#A9D99F"/>
<path d="M91.8606 204.592C90.6488 204.589 89.6639 205.561 89.6607 206.763C89.6575 207.965 90.6372 208.941 91.8489 208.944C93.0607 208.947 94.0456 207.975 94.0488 206.773C94.052 205.571 93.0723 204.594 91.8606 204.592Z" fill="#A9D99F"/>
<path d="M138.787 298.943C139.087 299.068 139.426 299.069 139.727 298.945C139.89 298.883 140.016 298.796 140.141 298.685C140.368 298.449 140.507 298.138 140.507 297.815C140.508 297.479 140.384 297.181 140.147 296.944C139.909 296.707 139.609 296.582 139.27 296.581C138.932 296.581 138.631 296.704 138.392 296.94C138.153 297.176 138.027 297.486 138.026 297.81C138.025 298.133 138.162 298.444 138.387 298.681C138.499 298.806 138.637 298.893 138.787 298.943Z" fill="#A9D99F"/>
<path d="M133.849 297.712C134.15 297.837 134.488 297.838 134.79 297.715C134.94 297.653 135.078 297.566 135.204 297.454C135.43 297.219 135.569 296.908 135.57 296.585C135.571 296.249 135.447 295.95 135.209 295.713C134.972 295.477 134.671 295.352 134.333 295.351C133.994 295.35 133.693 295.474 133.454 295.709C133.215 295.945 133.089 296.243 133.088 296.579C133.087 296.902 133.224 297.214 133.449 297.45C133.562 297.563 133.687 297.65 133.849 297.712Z" fill="#A9D99F"/>
<path d="M128.48 298.671C128.943 299.132 129.77 299.134 130.235 298.675C130.461 298.439 130.6 298.128 130.601 297.805C130.602 297.469 130.478 297.17 130.24 296.934C130.003 296.697 129.702 296.572 129.364 296.571C129.201 296.571 129.038 296.608 128.9 296.67C128.749 296.731 128.611 296.818 128.485 296.93C128.247 297.165 128.12 297.464 128.119 297.799C128.131 298.11 128.268 298.434 128.48 298.671Z" fill="#A9D99F"/>
<path d="M130.687 303.176C130.749 303.338 130.837 303.462 130.949 303.587C131.412 304.048 132.239 304.05 132.704 303.591C132.817 303.467 132.905 303.342 132.968 303.181C133.031 303.032 133.07 302.87 133.07 302.721C133.07 302.559 133.033 302.398 132.971 302.261C132.909 302.111 132.821 301.974 132.709 301.85C132.472 301.613 132.171 301.488 131.833 301.487C131.67 301.487 131.507 301.524 131.369 301.586C131.218 301.647 131.08 301.734 130.954 301.846C130.715 302.082 130.589 302.38 130.588 302.715C130.588 302.865 130.625 303.026 130.687 303.176Z" fill="#A9D99F"/>
<path d="M135.64 303.187C135.702 303.336 135.79 303.473 135.902 303.597C136.377 304.059 137.204 304.06 137.657 303.601C137.77 303.477 137.858 303.353 137.921 303.192C137.985 303.043 138.023 302.881 138.023 302.732C138.024 302.396 137.9 302.097 137.662 301.86C137.537 301.748 137.4 301.661 137.249 301.598C137.099 301.536 136.936 301.498 136.773 301.498C136.435 301.497 136.134 301.621 135.895 301.856C135.782 301.981 135.693 302.117 135.63 302.266C135.555 302.415 135.529 302.577 135.529 302.726C135.541 302.875 135.565 303.037 135.64 303.187Z" fill="#A9D99F"/>
<path d="M135.169 306.755C134.932 306.518 134.631 306.393 134.293 306.393C134.13 306.392 133.967 306.429 133.829 306.491C133.678 306.553 133.54 306.64 133.414 306.751C133.301 306.875 133.213 307.012 133.15 307.161C133.087 307.31 133.049 307.472 133.048 307.621C133.047 307.957 133.184 308.255 133.409 308.492C133.759 308.829 134.298 308.954 134.762 308.756C134.925 308.695 135.051 308.608 135.177 308.496C135.403 308.26 135.542 307.95 135.543 307.627C135.543 307.465 135.506 307.303 135.444 307.166C135.369 307.017 135.282 306.88 135.169 306.755Z" fill="#A9D99F"/>
<path d="M25.2518 51.0963C25.5523 51.2213 25.8907 51.222 26.1919 51.0984C26.355 51.0365 26.4806 50.9498 26.6063 50.8382C26.8326 50.6024 26.9714 50.2918 26.9723 49.9685C26.9733 49.6327 26.8488 49.334 26.6114 49.0972C26.3739 48.8604 26.0735 48.7354 25.735 48.7346C25.3966 48.7339 25.0954 48.8576 24.8566 49.0933C24.6177 49.329 24.4915 49.6396 24.4905 49.9629C24.4896 50.2863 24.6265 50.5974 24.8515 50.8342C24.9639 50.9588 25.1015 51.0462 25.2518 51.0963Z" fill="#A9D99F"/>
<path d="M20.3143 49.8658C20.6148 49.9908 20.9532 49.9916 21.2544 49.8679C21.405 49.806 21.5431 49.7193 21.6688 49.6077C21.8951 49.3719 22.0339 49.0613 22.0348 48.738C22.0358 48.4023 21.9114 48.1035 21.6739 47.8667C21.4364 47.6299 21.136 47.5049 20.7975 47.5042C20.4591 47.5034 20.1579 47.6271 19.9191 47.8628C19.6802 48.0985 19.554 48.3967 19.553 48.7325C19.5521 49.0558 19.689 49.367 19.914 49.6038C20.0264 49.7159 20.1515 49.8032 20.3143 49.8658Z" fill="#A9D99F"/>
<path d="M14.9413 50.824C15.4037 51.2852 16.231 51.287 16.6961 50.8279C16.9224 50.5922 17.0612 50.2816 17.0622 49.9583C17.0631 49.6225 16.9387 49.3238 16.7012 49.087C16.4638 48.8502 16.1633 48.7252 15.8249 48.7244C15.6619 48.724 15.4988 48.761 15.3608 48.8229C15.2102 48.8847 15.0721 48.9714 14.9464 49.0831C14.7075 49.3188 14.5813 49.617 14.5803 49.9527C14.592 50.2636 14.7289 50.5873 14.9413 50.824Z" fill="#A9D99F"/>
<path d="M17.1519 55.3291C17.2141 55.4909 17.3015 55.6154 17.4139 55.74C17.8764 56.2012 18.7036 56.203 19.1688 55.744C19.2819 55.6199 19.37 55.4957 19.4332 55.3342C19.4963 55.1851 19.5344 55.0235 19.5348 54.8743C19.5353 54.7126 19.4982 54.5509 19.4359 54.414C19.3736 54.2646 19.2863 54.1276 19.1739 54.003C18.9364 53.7662 18.6359 53.6412 18.2975 53.6404C18.1346 53.6401 17.9715 53.677 17.8334 53.7389C17.6828 53.8007 17.5447 53.8875 17.419 53.9991C17.1802 54.2348 17.054 54.533 17.053 54.8687C17.0525 55.018 17.0897 55.1797 17.1519 55.3291Z" fill="#A9D99F"/>
<path d="M22.1011 55.3428C22.1634 55.4921 22.2507 55.6291 22.3631 55.7537C22.8381 56.2149 23.6654 56.2167 24.118 55.7576C24.2311 55.6335 24.3193 55.5094 24.3824 55.3479C24.4455 55.1988 24.4836 55.0372 24.484 54.888C24.485 54.5522 24.3605 54.2535 24.1231 54.0167C23.9981 53.9045 23.8604 53.8171 23.7102 53.7546C23.56 53.6921 23.3971 53.6544 23.2342 53.6541C22.8958 53.6533 22.5946 53.777 22.3557 54.0127C22.2425 54.1368 22.1544 54.2734 22.0913 54.4225C22.0156 54.5716 21.9901 54.7332 21.9897 54.8824C22.0018 55.0316 22.0264 55.1934 22.1011 55.3428Z" fill="#A9D99F"/>
<path d="M21.634 58.9085C21.3965 58.6717 21.0961 58.5467 20.7577 58.5459C20.5947 58.5456 20.4317 58.5825 20.2936 58.6444C20.143 58.7062 20.0049 58.793 19.8792 58.9046C19.766 59.0287 19.6779 59.1653 19.6147 59.3144C19.5516 59.4635 19.5136 59.625 19.5131 59.7743C19.5121 60.11 19.6492 60.4088 19.8741 60.6455C20.2241 60.9821 20.7627 61.1076 21.2271 60.9097C21.3902 60.8479 21.5158 60.7611 21.6415 60.6495C21.8678 60.4137 22.0066 60.1032 22.0075 59.7798C22.008 59.6182 21.9708 59.4564 21.9086 59.3195C21.8338 59.1701 21.7465 59.0331 21.634 58.9085Z" fill="#A9D99F"/>
<path d="M101.745 120.284C102.51 120.285 103.138 119.665 103.14 118.907C103.142 118.148 102.517 117.525 101.753 117.523C100.988 117.521 100.359 118.142 100.357 118.9C100.355 119.671 100.98 120.282 101.745 120.284Z" fill="#A9D99F"/>
<path d="M104.8 127.491C105.565 127.492 106.193 126.872 106.195 126.114C106.197 125.355 105.572 124.732 104.807 124.73C104.042 124.728 103.414 125.349 103.412 126.107C103.422 126.878 104.035 127.489 104.8 127.491Z" fill="#A9D99F"/>
<path d="M97.706 116.032C98.4708 116.033 99.0993 115.413 99.1014 114.655C99.1034 113.896 98.4783 113.273 97.7135 113.271C96.9487 113.269 96.3201 113.89 96.3181 114.648C96.316 115.419 96.9412 116.03 97.706 116.032Z" fill="#A9D99F"/>
<path d="M64.7241 278.495C64.8407 278.616 64.9806 278.712 65.1354 278.777C65.2903 278.843 65.457 278.877 65.6255 278.878C65.7939 278.878 65.9608 278.845 66.1161 278.78C66.2713 278.715 66.4118 278.619 66.5291 278.499C66.7003 278.324 66.8157 278.102 66.8611 277.863C66.9064 277.623 66.8796 277.375 66.7841 277.15C66.6886 276.925 66.5284 276.734 66.3237 276.598C66.119 276.463 65.8787 276.391 65.6328 276.391C65.3868 276.39 65.1461 276.461 64.9406 276.595C64.7351 276.73 64.5738 276.921 64.477 277.145C64.3801 277.369 64.3519 277.617 64.3958 277.857C64.4398 278.097 64.5539 278.319 64.7241 278.495Z" fill="#A9D99F"/>
</svg>
