<svg xmlns="http://www.w3.org/2000/svg" width="221" height="72" fill="none" viewBox="0 0 221 72"><path fill="#fff" fill-rule="evenodd" d="M210.484 36.0366V33.234C208.137 34.0484 208.736 34.8149 206.268 35.6533L207.849 22.5984C205.142 21.5205 205.095 21.9277 204.136 25.0417C202.867 29.1139 196.615 35.1263 192.423 36.3001C193.573 34.24 197.022 30.0002 194.195 27.1976C191.297 24.347 187.56 28.036 186.291 29.066L186.889 26.6466C182.841 26.3592 183.847 27.8922 181.021 30.2637C179.392 31.6291 178.098 33.6652 175.559 33.9526C175.799 31.3416 177.044 28.012 175.08 26.2394C173.284 24.6105 170.074 25.1615 167.99 26.4071C163.367 29.1139 165.139 32.2519 162.384 34.3598C161.426 35.1024 160.612 35.6054 159.366 35.9887C159.726 34.1682 160.492 32.9226 161.235 31.4374C167.079 19.5802 152.036 32.3237 151.39 32.5872C153.617 26.3592 161.786 13.5198 157.713 12.6335C155.438 12.1305 151.39 24.0596 150.887 25.4489C149.737 28.7067 149.018 29.5451 147.078 31.2697C145.257 32.8986 144.299 34.6952 141.473 35.5815C142.095 32.204 142.024 30.8625 142.335 27.4611C142.598 24.6584 144.347 23.0296 141.544 21.9516C138.933 21.9756 139.892 28.7546 132.418 33.1382L132.442 36.3241C135.724 34.6952 135.029 32.3477 138.742 31.2697C138.239 39.3902 135.915 35.845 133.496 37.5697C133.999 40.4441 136.37 40.1807 140.49 39.1506C142.527 38.6476 145.617 36.5636 146.144 35.6294L145.76 39.486C150.072 39.1746 150.934 36.1803 154.623 33.5933L157.043 31.677C157.067 31.5572 157.21 31.3895 157.378 31.4135L157.594 31.9884C156.444 33.761 154.839 36.6834 155.366 39.462C158.648 39.9411 161.474 38.6236 163.367 36.7792C163.941 37.2822 167.008 42.5521 172.565 38.456C175.176 36.5396 175.463 37.6176 177.547 36.4438C179.248 35.5096 179.296 34.5275 181.38 33.5454C180.685 36.9469 173.595 49.6185 177.859 50.1934C179.943 50.4569 179.991 47.9178 180.637 45.235C181.236 42.7916 181.787 40.9232 182.745 38.6236C183.991 35.6773 186.123 32.683 188.494 30.7907C188.734 30.599 189.572 30.0241 189.86 29.9523C190.291 29.8325 190.315 29.8804 190.794 29.9283L191.441 30.1439C191.776 31.8926 190.171 33.7131 189.261 35.1024C187.704 37.4738 188.039 36.4917 185.668 37.0187C185.548 37.0427 185.404 37.0906 185.308 37.1145C185.213 37.1385 185.045 37.2104 184.973 37.2343L184.446 38.8871C186.913 40.9472 194.243 38.959 196.16 37.5936C198.771 35.7492 200.352 33.0423 203.442 31.1979C203.633 32.7789 203.418 34.5994 202.651 35.7971C201.621 37.4738 200.424 36.8989 198.316 37.1145C198.387 39.3662 198.22 39.5339 200.519 39.7255C206.005 40.1327 208.185 37.2822 210.532 36.0845L210.484 36.0366ZM167.678 36.348C166.744 32.3477 168.756 27.2934 172.541 29.2337C172.637 32.0363 172.014 29.8804 171.271 32.3956C170.744 34.264 171.463 34.288 170.936 35.9887C169.499 36.5875 169.379 36.5636 167.702 36.348H167.678Z" clip-rule="evenodd"/><path fill="#fff" d="M16.8433 55.4394C16.6277 55.6549 16.2445 55.6549 16.0289 55.4394C15.8133 55.2238 15.8133 54.8405 16.0289 54.6249L17.514 53.1398C17.6338 53.02 17.7775 52.9721 17.9212 52.9721H25.3949L29.8264 48.5406C30.042 48.325 30.4253 48.325 30.6408 48.5406C30.8564 48.7562 30.8564 49.1394 30.6408 49.355L26.0417 53.9542C25.9458 54.05 25.7782 54.1219 25.6344 54.1219H18.1608L16.8433 55.4394Z"/><path fill="#fff" d="M22.2553 53.1398C22.4709 52.9243 22.8542 52.9243 23.0698 53.1398C23.2854 53.3554 23.2854 53.7387 23.0698 53.9543L21.0816 55.9425C20.866 56.158 20.4827 56.158 20.2672 55.9425C20.0516 55.7269 20.0516 55.3436 20.2672 55.128L22.2553 53.1398Z"/><path fill="#fff" d="M14.9957 57.6434C15.2592 57.6434 15.5227 57.5236 15.6904 57.3559C15.8581 57.1883 15.9778 56.9248 15.9778 56.6613C15.9778 56.3978 15.8581 56.1343 15.6904 55.9666C15.5227 55.7989 15.2592 55.6791 14.9957 55.6791C14.7322 55.6791 14.4687 55.7989 14.301 55.9666C14.1334 56.1343 14.0136 56.3978 14.0136 56.6613C14.0136 56.9248 14.1334 57.1883 14.301 57.3559C14.4927 57.5236 14.7322 57.6434 14.9957 57.6434ZM16.5288 58.1704C16.1455 58.5536 15.5946 58.7932 14.9957 58.7932C14.3969 58.7932 13.8699 58.5536 13.4626 58.1704C13.0794 57.7871 12.8398 57.2362 12.8398 56.6373C12.8398 56.0385 13.0794 55.5115 13.4626 55.1043C13.8459 54.721 14.3969 54.4814 14.9957 54.4814C15.5946 54.4814 16.1215 54.721 16.5288 55.1043C16.912 55.4875 17.1516 56.0385 17.1516 56.6373C17.1516 57.2362 16.912 57.7632 16.5288 58.1704Z"/><path fill="#fff" d="M24.5074 61.9789C24.2918 62.1945 23.9085 62.1945 23.6929 61.9789C23.4774 61.7633 23.4774 61.38 23.6929 61.1644L29.8491 55.0082C30.0647 54.7927 30.448 54.7927 30.6636 55.0082C30.8792 55.2238 30.8792 55.6071 30.6636 55.8227L24.5074 61.9789Z"/><path fill="#fff" d="M30.8295 59.9906C30.8295 60.326 30.566 60.6134 30.2546 60.6134C29.9432 60.6134 29.6797 60.326 29.6797 59.9906V41.546C29.6797 41.2107 29.9432 40.9232 30.2546 40.9232C30.566 40.9232 30.8295 41.2107 30.8295 41.546V59.9906Z"/><path fill="#fff" d="M30.2335 63.1525C30.497 63.1525 30.7605 63.0327 30.9281 62.8651C31.0958 62.6974 31.2156 62.4339 31.2156 62.1704C31.2156 61.9069 31.0958 61.6434 30.9281 61.4757C30.7605 61.308 30.497 61.1883 30.2335 61.1883C29.97 61.1883 29.7065 61.308 29.5388 61.4757C29.3711 61.6434 29.2514 61.9069 29.2514 62.1704C29.2514 62.4339 29.3711 62.6974 29.5388 62.8651C29.7065 63.0327 29.97 63.1525 30.2335 63.1525ZM31.7665 63.6795C31.3833 64.0628 30.8323 64.3023 30.2574 64.3023C29.6586 64.3023 29.1316 64.0628 28.7244 63.6795C28.3411 63.2962 28.1016 62.7453 28.1016 62.1464C28.1016 61.5476 28.3411 61.0206 28.7244 60.6373C29.1076 60.2541 29.6586 60.0145 30.2335 60.0145C30.8323 60.0145 31.3593 60.2541 31.7665 60.6373C32.1498 61.0206 32.3893 61.5715 32.3893 62.1704C32.3893 62.7692 32.1498 63.2962 31.7665 63.6795Z"/><path fill="#fff" d="M29.8258 53.2355C29.6102 53.0199 29.6102 52.6367 29.8258 52.4211C30.0413 52.2055 30.4246 52.2055 30.6402 52.4211L34.5447 56.3256H39.4074C39.5751 56.3256 39.7188 56.3975 39.8146 56.4933L40.9404 57.6191C41.156 57.8347 41.156 58.218 40.9404 58.4336C40.7248 58.6491 40.3416 58.6491 40.126 58.4336L39.1678 57.4754H34.3052C34.1614 57.4754 34.0177 57.4275 33.8979 57.3077L29.8258 53.2355Z"/><path fill="#fff" d="M37.6324 57.332C37.4168 57.5475 37.0335 57.5475 36.8179 57.332C36.6024 57.1164 36.6024 56.7331 36.8179 56.5175L38.9019 54.4575C39.1175 54.2419 39.5008 54.2419 39.7164 54.4575C39.932 54.6731 39.932 55.0563 39.7164 55.2719L37.6324 57.3559V57.332Z"/><path fill="#fff" d="M42.0621 60.3502C42.3256 60.3502 42.5891 60.2304 42.7568 60.0627C42.9245 59.895 43.0442 59.6315 43.0442 59.3681C43.0442 59.1046 42.9245 58.8411 42.7568 58.6734C42.5891 58.4817 42.3256 58.3859 42.0621 58.3859C41.7986 58.3859 41.5351 58.5057 41.3674 58.6734C41.1758 58.8411 41.08 59.1046 41.08 59.3681C41.08 59.6315 41.1998 59.895 41.3674 60.0627C41.5351 60.2304 41.7986 60.3502 42.0621 60.3502ZM43.5952 60.8772C43.2119 61.2604 42.661 61.5 42.0621 61.5C41.4633 61.5 40.9363 61.2604 40.5291 60.8772C40.1458 60.4939 39.9062 59.9429 39.9062 59.3441C39.9062 58.7452 40.1458 58.2183 40.5291 57.811C40.9123 57.4278 41.4633 57.1882 42.0621 57.1882C42.661 57.1882 43.188 57.4278 43.5952 57.811C43.9784 58.1943 44.218 58.7452 44.218 59.3441C44.218 59.9429 43.9784 60.4699 43.5952 60.8772Z"/><path fill="#fff" d="M52.4376 48.6605C52.749 48.6605 53.0125 48.924 53.0125 49.2354C53.0125 49.5468 52.749 49.8103 52.4376 49.8103H33.7295C33.5618 49.8103 33.4181 49.7384 33.3223 49.6426L30.0406 46.3609C29.825 46.1453 29.825 45.762 30.0406 45.5465C30.2562 45.3309 30.6394 45.3309 30.855 45.5465L33.9691 48.6605H52.4376Z"/><path fill="#fff" d="M39.2847 49.6425C39.0691 49.8581 38.6859 49.8581 38.4703 49.6425C38.2547 49.4269 38.2547 49.0436 38.4703 48.8281L41.1531 46.1452C41.3687 45.9296 41.752 45.9296 41.9676 46.1452C42.1832 46.3608 42.1832 46.7441 41.9676 46.9596L39.2847 49.6425Z"/><path fill="#fff" d="M48.1047 52.2537C48.3203 52.4693 48.3203 52.8526 48.1047 53.0682C47.8891 53.2838 47.5058 53.2838 47.2902 53.0682L43.8648 49.6428C43.6492 49.4272 43.6492 49.0439 43.8648 48.8283C44.0804 48.6127 44.4637 48.6127 44.6793 48.8283L48.1047 52.2537Z"/><path fill="#fff" d="M49.1046 55.0321C49.3681 55.0321 49.6316 54.9124 49.7992 54.7447C49.9669 54.577 50.0867 54.3135 50.0867 54.05C50.0867 53.7865 49.9669 53.523 49.7992 53.3554C49.6316 53.1877 49.3681 53.0679 49.1046 53.0679C48.8411 53.0679 48.5776 53.1877 48.4099 53.3554C48.2422 53.523 48.1224 53.7865 48.1224 54.05C48.1224 54.3135 48.2422 54.577 48.4099 54.7447C48.5776 54.9124 48.8411 55.0321 49.1046 55.0321ZM50.6376 55.5591C50.2544 55.9424 49.7034 56.1819 49.1285 56.1819C48.5297 56.1819 48.0027 55.9424 47.5955 55.5591C47.2122 55.1759 46.9727 54.6249 46.9727 54.0261C46.9727 53.4272 47.2122 52.9002 47.5955 52.517C47.9787 52.1337 48.5297 51.8942 49.1046 51.8942C49.7034 51.8942 50.2304 52.1337 50.6376 52.517C51.0209 52.9002 51.2604 53.4512 51.2604 54.05C51.2604 54.6489 51.0209 55.1759 50.6376 55.5591Z"/><path fill="#fff" d="M25.6324 48.3251C25.4168 48.5407 25.0335 48.5407 24.8179 48.3251C24.6024 48.1095 24.6024 47.7262 24.8179 47.5106L29.8483 42.4803C30.0639 42.2647 30.4471 42.2647 30.6627 42.4803C30.8783 42.6959 30.8783 43.0791 30.6627 43.2947L25.6324 48.3251Z"/><path fill="#fff" d="M23.8863 50.3852C24.1498 50.3852 24.4133 50.2654 24.581 50.0977C24.7487 49.93 24.8684 49.6666 24.8684 49.4031C24.8684 49.1396 24.7487 48.8761 24.581 48.7084C24.4133 48.5168 24.1498 48.4209 23.8863 48.4209C23.6228 48.4209 23.3593 48.5407 23.1917 48.7084C23 48.8761 22.9042 49.1396 22.9042 49.4031C22.9042 49.6666 23.024 49.93 23.1917 50.0977C23.3593 50.2654 23.6228 50.3852 23.8863 50.3852ZM25.4194 50.9122C25.0361 51.2954 24.4852 51.535 23.8863 51.535C23.2875 51.535 22.7605 51.2954 22.3533 50.9122C21.97 50.5289 21.7305 49.978 21.7305 49.4031C21.7305 48.8042 21.97 48.2772 22.3533 47.87C22.7365 47.4867 23.2875 47.2472 23.8863 47.2472C24.4852 47.2472 25.0122 47.4867 25.4194 47.87C25.8027 48.2533 26.0422 48.8042 26.0422 49.4031C26.0422 50.0019 25.8027 50.5289 25.4194 50.9361V50.9122Z"/><path fill="#fff" d="M10.0386 48.0378C9.82304 48.2534 9.43978 48.2534 9.22419 48.0378C9.0086 47.8222 9.0086 47.4389 9.22419 47.2233L11.7633 44.6842C11.8831 44.5644 12.0268 44.5165 12.1705 44.5165H21.9917L25.5608 40.9474V39.4622C25.5608 39.1508 25.8243 38.8873 26.1357 38.8873C26.4471 38.8873 26.7106 39.1508 26.7106 39.4622V41.1869C26.7106 41.3306 26.6627 41.4744 26.543 41.5941L22.6385 45.4986C22.5426 45.5945 22.3989 45.6663 22.2312 45.6663H12.4101L10.0386 48.0378Z"/><path fill="#fff" d="M17.2261 47.6064C17.0105 47.822 16.6273 47.822 16.4117 47.6064C16.1961 47.3908 16.1961 47.0076 16.4117 46.792L18.5196 44.684C18.7352 44.4684 19.1185 44.4684 19.3341 44.684C19.5497 44.8996 19.5497 45.2829 19.3341 45.4985L17.2261 47.6064Z"/><path fill="#fff" d="M8.40977 50.1696C8.67326 50.1696 8.93676 50.0498 9.10444 49.8821C9.29607 49.7145 9.39189 49.451 9.39189 49.1875C9.39189 48.924 9.27211 48.6605 9.10444 48.4928C8.93676 48.3251 8.67326 48.2054 8.40977 48.2054C8.14628 48.2054 7.88278 48.3251 7.7151 48.4928C7.54742 48.6605 7.42765 48.924 7.42765 49.1875C7.42765 49.451 7.54742 49.7145 7.7151 49.8821C7.88278 50.0498 8.14628 50.1696 8.40977 50.1696ZM9.94283 50.6966C9.55956 51.0799 9.00862 51.3194 8.40977 51.3194C7.81092 51.3194 7.28393 51.0799 6.87671 50.6966C6.49345 50.3133 6.25391 49.7624 6.25391 49.1875C6.25391 48.5886 6.49345 48.0616 6.87671 47.6544C7.25998 47.2712 7.81092 47.0316 8.38582 47.0316C8.98467 47.0316 9.51166 47.2712 9.91887 47.6544C10.3021 48.0377 10.5417 48.5886 10.5417 49.1875C10.5417 49.7863 10.3021 50.3133 9.91887 50.7205L9.94283 50.6966Z"/><path fill="#fff" d="M44.7736 43.1032C45.085 43.1032 45.3485 43.3667 45.3485 43.6781C45.3485 43.9895 45.085 44.253 44.7736 44.253H36.9885C36.8208 44.253 36.6771 44.1811 36.5813 44.0853L34.0661 41.5701C33.9463 41.4504 33.8984 41.3067 33.8984 41.1629V38.4561C33.8984 38.1447 34.1619 37.8812 34.4733 37.8812C34.7847 37.8812 35.0482 38.1447 35.0482 38.4561V40.9234L37.228 43.1032H44.7736Z"/><path fill="#fff" d="M46.8311 44.6361C47.0946 44.6361 47.3581 44.5164 47.5258 44.3487C47.6935 44.181 47.8132 43.9175 47.8132 43.654C47.8132 43.3905 47.6935 43.127 47.5258 42.9594C47.3581 42.7917 47.0946 42.6719 46.8311 42.6719C46.5676 42.6719 46.3041 42.7917 46.1365 42.9594C45.9688 43.127 45.849 43.3905 45.849 43.654C45.849 43.9175 45.9688 44.181 46.1365 44.3487C46.3041 44.5164 46.5676 44.6361 46.8311 44.6361ZM48.3642 45.1631C47.9809 45.5464 47.43 45.7859 46.8551 45.7859C46.2562 45.7859 45.7292 45.5464 45.322 45.1631C44.9388 44.7799 44.6992 44.2289 44.6992 43.6301C44.6992 43.0312 44.9388 42.5042 45.322 42.121C45.7053 41.7377 46.2562 41.4982 46.8311 41.4982C47.43 41.4982 47.957 41.7377 48.3642 42.121C48.7475 42.5042 48.987 43.0552 48.987 43.654C48.987 44.2529 48.7475 44.7799 48.3642 45.1631Z"/><path fill="#fff" d="M30.8024 19.6761C31.1856 20.0594 31.2096 20.6822 30.8263 21.0894C30.443 21.4966 29.8202 21.4966 29.437 21.1134L30.8263 19.6761H30.8024ZM12.6692 15.1248L12.3338 13.1606L12.9326 13.0648L13.5315 12.9929L14.1303 12.945L14.7292 12.8971L15.3281 12.8732H15.9269L16.5258 12.8971L17.1246 12.9211L17.7235 12.969L18.3223 13.0408L18.9212 13.1367L19.52 13.2564L20.1189 13.4002L20.7177 13.5439L21.2926 13.7116L21.8675 13.9032L22.4424 14.1188L23.0173 14.3583L23.5922 14.5979L24.1671 14.8614L24.742 15.1488L25.3169 15.4602L25.8918 15.7956L26.4427 16.1549L26.9937 16.5142L27.5446 16.8974L28.0956 17.3047L28.6465 17.7358L29.1974 18.191L29.7484 18.67L30.2993 19.1731L30.8503 19.6761L29.4609 21.1134L28.9579 20.6343L28.4549 20.1792L27.9518 19.748L27.4488 19.3168L26.9458 18.9096L26.4427 18.5263L25.9397 18.167L25.4127 17.8317L24.9097 17.5203L24.4066 17.2089L23.8796 16.9214L23.3527 16.6579L22.8257 16.4184L22.2987 16.2028L21.7717 15.9872L21.2447 15.7956L20.7177 15.6279L20.1907 15.4842L19.6637 15.3404L19.1367 15.2207L18.6098 15.1248L18.0828 15.053L17.5558 14.9811L17.0288 14.9332L16.5018 14.9093L15.9748 14.8853H15.4478L14.8969 14.9093L14.3459 14.9572L13.795 15.0051L13.244 15.0769L12.6931 15.1728L12.6692 15.1248ZM12.6692 15.1248C12.1182 15.2207 11.6152 14.8614 11.5194 14.3104C11.4235 13.7595 11.7829 13.2564 12.3338 13.1606L12.6692 15.1248Z"/><path fill="#fff" d="M30.879 12.1545C31.2384 12.5857 31.1665 13.2085 30.7593 13.5438C30.3521 13.9032 29.7293 13.8313 29.3699 13.4241L30.879 12.1545ZM21.9921 9.37584L22.2316 7.41161L22.5191 7.45952L22.8065 7.50743L23.094 7.55534L23.3814 7.6272L23.6689 7.69906L23.9563 7.77092L24.2438 7.86674L24.5312 7.96255L24.8187 8.05837L25.1061 8.15419L25.3936 8.27396L25.681 8.39373L25.9685 8.5135L26.2559 8.65722L26.5434 8.80095L26.8308 8.94467L27.1183 9.08839L27.4057 9.25607L27.6932 9.42375L27.9806 9.59143L28.2441 9.78306L28.5076 9.97469L28.7711 10.1663L29.0346 10.358L29.2981 10.5735L29.5376 10.7891L29.7772 11.0047L30.0167 11.2203L30.2562 11.4359L30.4718 11.6754L30.6874 11.915L30.903 12.1545L29.3939 13.4241L29.2262 13.2324L29.0585 13.0408L28.8669 12.8492L28.6753 12.6575L28.4836 12.4659L28.2681 12.2743L28.0525 12.1066L27.8369 11.9389L27.6213 11.7712L27.3818 11.6036L27.1422 11.4359L26.9027 11.2682L26.6631 11.1245L26.4236 10.9808L26.1841 10.837L25.9445 10.6933L25.705 10.5735L25.4654 10.4538L25.2259 10.334L24.9624 10.2142L24.6989 10.1184L24.4354 10.0226L24.1959 9.92679L23.9563 9.83097L23.7168 9.75911L23.4772 9.68724L23.2377 9.61538L22.9982 9.54352L22.7586 9.49561L22.5191 9.4477L22.2795 9.3998L22.064 9.37584H21.9921ZM21.9921 9.37584C21.4412 9.30398 21.0579 8.8249 21.1298 8.27396C21.2016 7.72301 21.6807 7.33975 22.2316 7.41161L21.9921 9.37584Z"/><path fill="#fff" d="M30.71 39.0072C30.2549 39.2947 29.6321 39.1509 29.3446 38.6958C29.0572 38.2407 29.2009 37.6179 29.656 37.3304L30.71 39.0072ZM6.92365 23.7006L6.15712 21.8561L7.73808 21.2573L9.31905 20.8022L10.9 20.4668L12.481 20.2512L14.038 20.1554H15.5711L17.0802 20.2512L18.5653 20.4428L20.0026 20.7303L21.4158 21.1136L22.7812 21.5687L24.0987 22.0957L25.3443 22.6706L26.542 23.3173L27.6678 24.012L28.7218 24.7546L29.7039 25.5451L30.6142 26.3834L31.4286 27.2458L32.1473 28.1321L32.7701 29.0423L33.297 29.9766L33.7043 30.9347L33.9917 31.9168L34.1354 32.8989V33.8811L33.9917 34.8632L33.6803 35.7974L33.2012 36.6837L32.5545 37.5221L31.74 38.2886L30.7819 38.9833L29.7279 37.3065L30.4944 36.7555L31.0933 36.1806L31.5484 35.5818L31.8838 34.9829L32.0993 34.3601L32.1952 33.7134V33.0427L32.0993 32.348L31.8838 31.6054L31.5724 30.8629L31.1412 30.0963L30.6142 29.3298L29.9914 28.5633L29.2728 27.8207L28.4823 27.0781L27.596 26.3595L26.6378 25.6888L25.6078 25.066L24.5299 24.4671L23.3801 23.9401L22.1824 23.4611L20.9368 23.0538L19.6432 22.7185L18.3258 22.455L16.9604 22.2634L15.5711 22.1675H14.1578L12.7445 22.2634L11.3072 22.455L9.86999 22.7664L8.43275 23.1976L6.99551 23.7485L6.92365 23.7006ZM6.92365 23.7006C6.42061 23.9162 5.84572 23.6766 5.63013 23.1736C5.41454 22.6706 5.65408 22.0957 6.15712 21.8801L6.92365 23.7245V23.7006Z"/><path fill="#fff" d="M29.4359 19.6763L30.8252 21.1135C30.442 21.4968 29.7952 21.4968 29.4359 21.0896C29.0526 20.6824 29.0766 20.0596 29.4599 19.6763H29.4359ZM47.4733 15.1011L46.9224 15.0053L46.3714 14.9334L45.8444 14.8855L45.3174 14.8615L44.7904 14.8376H44.2635L43.7365 14.8615L43.2095 14.8855L42.6825 14.9334L42.1555 15.0053L41.6285 15.1011L41.1015 15.1969L40.5745 15.3167L40.0475 15.4604L39.5206 15.6041L38.9936 15.7718L38.4666 15.9634L37.9396 16.179L37.4126 16.3946L36.9096 16.6341L36.4065 16.8976L35.9035 17.1851L35.4005 17.4965L34.8974 17.8079L34.3944 18.1432L33.8914 18.5025L33.3883 18.8858L32.8853 19.293L32.3823 19.7003L31.8792 20.1314L31.3762 20.5865L30.8732 21.0656L29.4838 19.6284L30.0108 19.1254L30.5378 18.6463L31.0887 18.1672L31.6397 17.7121L32.1906 17.2809L32.7416 16.8737L33.2925 16.4904L33.8435 16.1311L34.3944 15.7718L34.9453 15.4364L35.5202 15.125L36.0951 14.8376L36.67 14.5741L37.2449 14.3345L37.8198 14.095L38.3947 13.8794L38.9696 13.6878L39.5445 13.5201L40.1194 13.3764L40.6943 13.2327L41.2932 13.1129L41.892 13.0171L42.4909 12.9452L43.0897 12.8973L43.6886 12.8494L44.2874 12.8254H44.8863L45.4851 12.8494L46.084 12.8973L46.6828 12.9452L47.2817 13.0171L47.8805 13.1129L47.5452 15.0771L47.4733 15.1011ZM47.4733 15.1011L47.8087 13.1368C48.3596 13.2327 48.7189 13.7357 48.6231 14.2866C48.5273 14.8376 48.0242 15.1969 47.4733 15.1011Z"/><path fill="#fff" d="M29.3922 12.1546L30.9013 13.4241C30.542 13.8553 29.9431 13.9032 29.512 13.5439C29.1047 13.1846 29.0329 12.5618 29.3922 12.1546ZM38.2791 9.37592L38.0635 9.39987L37.824 9.44778L37.5845 9.49569L37.3449 9.54359L37.1054 9.61546L36.8658 9.68732L36.6263 9.75918L36.3868 9.83104L36.1472 9.92686L35.9077 10.0227L35.6442 10.1185L35.3807 10.2143L35.1172 10.3341L34.8777 10.4538L34.6381 10.5736L34.3986 10.6934L34.159 10.8371L33.9195 10.9808L33.68 11.1246L33.4404 11.2683L33.2009 11.436L32.9613 11.6036L32.7218 11.7713L32.5062 11.939L32.2906 12.1067L32.075 12.2744L31.8595 12.466L31.6678 12.6576L31.4762 12.8493L31.2846 13.0409L31.1169 13.2325L30.9492 13.4241L29.4401 12.1546L29.6557 11.915L29.8713 11.6755L30.0869 11.436L30.3264 11.2204L30.5659 11.0048L30.8055 10.7892L31.045 10.5736L31.3085 10.358L31.572 10.1664L31.8355 9.97477L32.099 9.78313L32.3625 9.5915L32.6499 9.42382L32.9374 9.25615L33.2248 9.08847L33.5123 8.94474L33.7997 8.80102L34.0872 8.6573L34.3746 8.51357L34.6621 8.3938L34.9495 8.27403L35.237 8.15426L35.5244 8.05844L35.8119 7.96263L36.0993 7.86681L36.3868 7.771L36.6742 7.69913L36.9617 7.62727L37.2491 7.55541L37.5366 7.5075L37.824 7.45959L38.1115 7.41169L38.351 9.37592H38.2791ZM38.2791 9.37592L38.0396 7.41169C38.5905 7.33982 39.0696 7.74704 39.1415 8.27403C39.2133 8.82497 38.8301 9.30405 38.2791 9.37592Z"/><path fill="#fff" d="M29.5645 39.0068L30.6185 37.33C31.0736 37.6175 31.2173 38.2403 30.9299 38.6954C30.6424 39.1505 30.0196 39.2943 29.5645 39.0068ZM53.3509 23.7002L51.9136 23.1492L50.4764 22.7181L49.0391 22.4067L47.6019 22.215L46.1886 22.1192H44.7753L43.386 22.215L42.0206 22.4067L40.7031 22.6702L39.4096 23.0055L38.164 23.4127L36.9663 23.8918L35.8165 24.4188L34.7386 25.0177L33.7086 25.6405L32.7504 26.3112L31.8641 27.0298L31.0736 27.7724L30.355 28.515L29.7322 29.2815L29.2052 30.048L28.774 30.8145L28.4626 31.5571L28.247 32.2997L28.1512 32.9944V33.6651L28.247 34.3118L28.4626 34.9346L28.798 35.5335L29.2531 36.1323L29.852 36.7072L30.6185 37.2582L29.5645 38.935L28.6063 38.2403L27.7919 37.4738L27.1451 36.6354L26.6661 35.7251L26.3547 34.7909L26.2109 33.8088V32.8267L26.3547 31.8446L26.6421 30.8624L27.0493 29.9043L27.5524 28.9701L28.1752 28.0598L28.8938 27.1735L29.7082 26.3112L30.5945 25.4728L31.5766 24.6823L32.6306 23.9397L33.7565 23.2451L34.9542 22.5983L36.1998 22.0234L37.5172 21.4964L38.8826 21.0413L40.2959 20.658L41.7332 20.3706L43.2183 20.1789L44.7274 20.0831H46.2605L47.8175 20.1789L49.3985 20.3945L50.9794 20.7299L52.5604 21.185L54.1414 21.7839L53.3748 23.6283L53.3509 23.7002ZM53.3509 23.7002L54.1174 21.8557C54.6204 22.0713 54.86 22.6462 54.6444 23.1492C54.4288 23.6523 53.8539 23.8918 53.3509 23.6762V23.7002Z"/><path fill="#fff" d="M185.597 51.294C185.386 51.294 185.205 51.2184 185.054 51.0672C184.903 50.916 184.827 50.7349 184.827 50.5238C184.827 50.3127 184.903 50.1316 185.054 49.9804C185.205 49.8293 185.386 49.7537 185.597 49.7537C185.808 49.7537 185.989 49.8293 186.141 49.9804C186.292 50.1316 186.367 50.3127 186.367 50.5238C186.367 50.6636 186.332 50.792 186.26 50.9089C186.192 51.0259 186.099 51.12 185.982 51.1913C185.868 51.2598 185.74 51.294 185.597 51.294Z"/><path fill="#fff" d="M190.849 51.3625C190.233 51.3625 189.703 51.217 189.258 50.926C188.813 50.6351 188.47 50.2343 188.231 49.7237C187.991 49.2131 187.871 48.6298 187.871 47.9737C187.871 47.3062 187.994 46.7172 188.239 46.2066C188.487 45.6932 188.833 45.2924 189.275 45.0043C189.72 44.7133 190.239 44.5679 190.832 44.5679C191.294 44.5679 191.711 44.6534 192.082 44.8246C192.452 44.9957 192.756 45.2353 192.993 45.5434C193.23 45.8515 193.377 46.2109 193.434 46.6216H192.424C192.347 46.3221 192.176 46.0568 191.91 45.8258C191.648 45.5919 191.294 45.4749 190.849 45.4749C190.456 45.4749 190.11 45.5776 189.814 45.783C189.52 45.9855 189.29 46.2722 189.125 46.643C188.962 47.011 188.881 47.4432 188.881 47.9395C188.881 48.4472 188.961 48.8894 189.121 49.2659C189.283 49.6424 189.511 49.9348 189.805 50.143C190.102 50.3513 190.45 50.4554 190.849 50.4554C191.112 50.4554 191.35 50.4097 191.564 50.3185C191.778 50.2272 191.959 50.096 192.107 49.9248C192.256 49.7537 192.361 49.5483 192.424 49.3087H193.434C193.377 49.6966 193.235 50.046 193.01 50.357C192.788 50.665 192.492 50.9103 192.124 51.0929C191.759 51.2726 191.334 51.3625 190.849 51.3625Z"/><path fill="#fff" d="M197.58 51.3625C196.986 51.3625 196.466 51.2213 196.018 50.9389C195.573 50.6565 195.225 50.2614 194.974 49.7537C194.726 49.2459 194.602 48.6526 194.602 47.9737C194.602 47.2891 194.726 46.6915 194.974 46.1809C195.225 45.6703 195.573 45.2738 196.018 44.9914C196.466 44.709 196.986 44.5679 197.58 44.5679C198.173 44.5679 198.692 44.709 199.137 44.9914C199.585 45.2738 199.933 45.6703 200.181 46.1809C200.432 46.6915 200.558 47.2891 200.558 47.9737C200.558 48.6526 200.432 49.2459 200.181 49.7537C199.933 50.2614 199.585 50.6565 199.137 50.9389C198.692 51.2213 198.173 51.3625 197.58 51.3625ZM197.58 50.4554C198.03 50.4554 198.401 50.3398 198.692 50.1088C198.983 49.8777 199.198 49.574 199.338 49.1974C199.478 48.8209 199.548 48.413 199.548 47.9737C199.548 47.5344 199.478 47.1251 199.338 46.7457C199.198 46.3663 198.983 46.0597 198.692 45.8258C198.401 45.5919 198.03 45.4749 197.58 45.4749C197.129 45.4749 196.758 45.5919 196.467 45.8258C196.176 46.0597 195.961 46.3663 195.821 46.7457C195.681 47.1251 195.611 47.5344 195.611 47.9737C195.611 48.413 195.681 48.8209 195.821 49.1974C195.961 49.574 196.176 49.8777 196.467 50.1088C196.758 50.3398 197.129 50.4554 197.58 50.4554Z"/><path fill="#fff" d="M202.099 51.2255V44.6534H203.075V45.6803H203.16C203.297 45.3295 203.518 45.0571 203.823 44.8631C204.129 44.6663 204.495 44.5679 204.923 44.5679C205.357 44.5679 205.717 44.6663 206.006 44.8631C206.297 45.0571 206.523 45.3295 206.686 45.6803H206.754C206.923 45.3409 207.175 45.0713 207.512 44.8716C207.848 44.6691 208.252 44.5679 208.723 44.5679C209.31 44.5679 209.791 44.7518 210.164 45.1198C210.538 45.4849 210.725 46.054 210.725 46.827V51.2255H209.715V46.827C209.715 46.3421 209.583 45.9955 209.317 45.7873C209.052 45.5791 208.74 45.4749 208.38 45.4749C207.918 45.4749 207.56 45.6147 207.306 45.8943C207.052 46.1709 206.926 46.5218 206.926 46.9468V51.2255H205.899V46.7243C205.899 46.3507 205.777 46.0497 205.535 45.8215C205.292 45.5905 204.98 45.4749 204.598 45.4749C204.335 45.4749 204.09 45.5448 203.862 45.6846C203.637 45.8244 203.454 46.0183 203.314 46.2665C203.177 46.5118 203.109 46.7956 203.109 47.118V51.2255H202.099Z"/><path fill="#fff" d="M59.9336 23.0055H63.2872V24.9457C64.6046 22.742 66.6168 21.6401 69.2996 21.6401C71.9825 21.6401 74.2581 22.5503 76.1026 24.3948C77.947 26.2393 78.8812 28.443 78.8812 30.9822C78.8812 33.4973 77.947 35.7011 76.1026 37.5456C74.2581 39.39 71.9825 40.3242 69.2996 40.3242C66.6168 40.3242 64.6046 39.2223 63.2872 36.9707V45.7618H59.9336V22.9815V23.0055ZM63.2872 29.5689V32.4194C63.5027 33.6171 64.0776 34.6711 65.0118 35.5813C66.2335 36.779 67.6468 37.3779 69.2996 37.3779C70.9525 37.3779 72.3897 36.7551 73.6113 35.5334C74.833 34.3118 75.4558 32.8027 75.4558 31.0061C75.4558 29.1856 74.833 27.6765 73.6113 26.4309C72.3897 25.2092 70.9525 24.5864 69.2996 24.5864C67.6468 24.5864 66.1856 25.2092 64.94 26.4788C64.0537 27.3651 63.5027 28.3951 63.2872 29.5928V29.5689ZM100.296 39.8931H96.9426V36.9228C95.6251 39.1984 93.613 40.3242 90.9062 40.3242C88.2473 40.3242 85.9716 39.39 84.1272 37.5456C82.2827 35.7011 81.3485 33.4973 81.3485 30.9822C81.3485 28.443 82.2827 26.2393 84.1272 24.3948C85.9716 22.5503 88.2473 21.6161 90.9062 21.6161C93.613 21.6161 95.6251 22.742 96.9426 24.9697V22.9815H100.296V39.8931ZM96.9426 32.3236V29.6168C96.703 28.3951 96.1521 27.3411 95.2658 26.4548C94.0202 25.2092 92.5829 24.5625 90.9301 24.5625C89.2773 24.5625 87.8161 25.1853 86.6184 26.4069C85.3967 27.6525 84.7979 29.1617 84.7979 30.9822C84.7979 32.7787 85.3967 34.2878 86.6184 35.5095C87.84 36.7311 89.2773 37.33 90.9301 37.33C92.5829 37.33 94.0441 36.7072 95.2658 35.4616C96.1521 34.5753 96.703 33.5213 96.9426 32.2996V32.3236ZM107.315 13.3041V39.8931H103.961V13.3041H107.315ZM114.525 25.9758V39.8931H111.171V23.0055H113.255C114.166 22.4066 115.291 22.0952 116.657 22.0952C118.238 22.0952 119.531 22.4785 120.561 23.269C121.567 22.4785 122.861 22.0952 124.418 22.0952C125.999 22.0952 127.316 22.6462 128.394 23.7241C129.376 24.7302 129.879 25.9039 129.927 27.2453V39.917H126.574V26.5267C126.43 25.4967 125.711 24.9936 124.394 24.9936C123.316 24.9936 122.573 25.4727 122.166 26.4309V39.917H118.813V26.5267H118.789C118.645 25.4967 117.926 24.9936 116.633 24.9936C115.723 24.9936 115.004 25.329 114.477 25.9997L114.525 25.9758Z"/></svg>